# Blender 3.6.1
# www.blender.org
mtllib hallway_office_2.mtl
o Plane.012
v -7.650670 5.366145 -3.125997
v -7.650670 5.366145 -2.093253
v -6.617926 5.366145 -3.125997
v -6.617926 5.366145 -2.093253
v -6.617926 5.351773 -3.125997
v -7.650670 5.351773 -3.125997
v -7.650670 5.351773 -2.093253
v -6.617926 5.351773 -2.093253
v -11.265274 5.366145 -3.125997
v -11.265274 5.366145 -2.093253
v -10.232530 5.366145 -3.125997
v -10.232530 5.366145 -2.093253
v -10.232530 5.351773 -3.125997
v -11.265274 5.351773 -3.125997
v -11.265274 5.351773 -2.093253
v -10.232530 5.351773 -2.093253
v -14.879878 5.366145 -3.125997
v -14.879878 5.366145 -2.093253
v -13.847134 5.366145 -3.125997
v -13.847134 5.366145 -2.093253
v -13.847134 5.351773 -3.125997
v -14.879878 5.351773 -3.125997
v -14.879878 5.351773 -2.093253
v -13.847134 5.351773 -2.093253
v -18.494482 5.366145 -3.125997
v -18.494482 5.366145 -2.093253
v -17.461737 5.366145 -3.125997
v -17.461737 5.366145 -2.093253
v -17.461737 5.351773 -3.125997
v -18.494482 5.351773 -3.125997
v -18.494482 5.351773 -2.093253
v -17.461737 5.351773 -2.093253
vn -0.0000 1.0000 -0.0000
vn -0.0000 -1.0000 -0.0000
vn -0.0000 -0.0000 1.0000
vn -0.0000 -0.0000 -1.0000
vn 1.0000 -0.0000 -0.0000
vn -1.0000 -0.0000 -0.0000
vt 0.000000 0.000000
vt 1.000000 0.000000
vt 1.000000 1.000000
vt 0.000000 1.000000
s 0
usemtl Material
f 1/1/1 2/2/1 4/3/1 3/4/1
f 6/1/2 5/4/2 8/3/2 7/2/2
f 2/2/3 7/2/3 8/3/3 4/3/3
f 3/4/4 5/4/4 6/1/4 1/1/4
f 4/3/5 8/3/5 5/4/5 3/4/5
f 1/1/6 6/1/6 7/2/6 2/2/6
f 9/1/1 10/2/1 12/3/1 11/4/1
f 14/1/2 13/4/2 16/3/2 15/2/2
f 10/2/3 15/2/3 16/3/3 12/3/3
f 11/4/4 13/4/4 14/1/4 9/1/4
f 12/3/5 16/3/5 13/4/5 11/4/5
f 9/1/6 14/1/6 15/2/6 10/2/6
f 17/1/1 18/2/1 20/3/1 19/4/1
f 22/1/2 21/4/2 24/3/2 23/2/2
f 18/2/3 23/2/3 24/3/3 20/3/3
f 19/4/4 21/4/4 22/1/4 17/1/4
f 20/3/5 24/3/5 21/4/5 19/4/5
f 17/1/6 22/1/6 23/2/6 18/2/6
f 25/1/1 26/2/1 28/3/1 27/4/1
f 30/1/2 29/4/2 32/3/2 31/2/2
f 26/2/3 31/2/3 32/3/3 28/3/3
f 27/4/4 29/4/4 30/1/4 25/1/4
f 28/3/5 32/3/5 29/4/5 27/4/5
f 25/1/6 30/1/6 31/2/6 26/2/6
o door_elevator.015
v -16.162197 1.132896 -3.991364
v -17.549910 1.132896 -3.991364
v -16.162197 4.104012 -3.991364
v -17.549910 4.104012 -3.991364
v -16.162197 4.104012 -3.591364
v -16.162197 1.132896 -3.591364
v -17.549910 1.132896 -3.591363
v -17.549910 4.104012 -3.591364
v -12.692915 1.132896 -3.991365
v -14.080627 1.132896 -3.991365
v -12.692915 4.104012 -3.991365
v -14.080627 4.104012 -3.991365
v -12.692915 4.104012 -3.591366
v -12.692915 1.132896 -3.591365
v -14.080627 1.132896 -3.591365
v -14.080627 4.104012 -3.591365
v -9.223633 1.132896 -3.991366
v -10.611345 1.132896 -3.991366
v -9.223633 4.104012 -3.991367
v -10.611345 4.104012 -3.991366
v -9.223633 4.104012 -3.591367
v -9.223633 1.132896 -3.591366
v -10.611345 1.132896 -3.591366
v -10.611345 4.104012 -3.591366
v -5.754352 1.132896 -3.991367
v -7.142065 1.132896 -3.991367
v -5.754352 4.104012 -3.991368
v -7.142065 4.104012 -3.991367
v -5.754352 4.104012 -3.591368
v -5.754352 1.132896 -3.591367
v -7.142065 1.132896 -3.591367
v -7.142065 4.104012 -3.591367
vn -0.0000 -0.0000 -1.0000
vn -0.0000 -0.0000 1.0000
vn -1.0000 -0.0000 -0.0000
vn 1.0000 -0.0000 -0.0000
vn -0.0000 1.0000 -0.0000
vn -0.0000 -1.0000 -0.0000
vt 0.000000 0.000000
vt 1.000000 0.000000
vt 1.000000 1.000000
vt 0.000000 1.000000
s 0
f 33/5/7 34/6/7 36/7/7 35/8/7
f 38/5/8 37/8/8 40/7/8 39/6/8
f 34/6/9 39/6/9 40/7/9 36/7/9
f 35/8/10 37/8/10 38/5/10 33/5/10
f 36/7/11 40/7/11 37/8/11 35/8/11
f 33/5/12 38/5/12 39/6/12 34/6/12
f 41/5/7 42/6/7 44/7/7 43/8/7
f 46/5/8 45/8/8 48/7/8 47/6/8
f 42/6/9 47/6/9 48/7/9 44/7/9
f 43/8/10 45/8/10 46/5/10 41/5/10
f 44/7/11 48/7/11 45/8/11 43/8/11
f 41/5/12 46/5/12 47/6/12 42/6/12
f 49/5/7 50/6/7 52/7/7 51/8/7
f 54/5/8 53/8/8 56/7/8 55/6/8
f 50/6/9 55/6/9 56/7/9 52/7/9
f 51/8/10 53/8/10 54/5/10 49/5/10
f 52/7/11 56/7/11 53/8/11 51/8/11
f 49/5/12 54/5/12 55/6/12 50/6/12
f 57/5/7 58/6/7 60/7/7 59/8/7
f 62/5/8 61/8/8 64/7/8 63/6/8
f 58/6/9 63/6/9 64/7/9 60/7/9
f 59/8/10 61/8/10 62/5/10 57/5/10
f 60/7/11 64/7/11 61/8/11 59/8/11
f 57/5/12 62/5/12 63/6/12 58/6/12
o door_elevator.016
v -16.162197 1.132896 -0.476811
v -17.549910 1.132896 -0.476810
v -16.162197 4.104012 -0.476811
v -17.549910 4.104012 -0.476811
v -16.162197 4.104012 -0.076811
v -16.162197 1.132896 -0.076811
v -17.549910 1.132896 -0.076810
v -17.549910 4.104012 -0.076811
v -12.692915 1.132896 -0.476812
v -14.080627 1.132896 -0.476812
v -12.692915 4.104012 -0.476812
v -14.080627 4.104012 -0.476812
v -12.692915 4.104012 -0.076812
v -12.692915 1.132896 -0.076812
v -14.080627 1.132896 -0.076812
v -14.080627 4.104012 -0.076812
v -9.223633 1.132896 -0.476813
v -10.611345 1.132896 -0.476813
v -9.223633 4.104012 -0.476813
v -10.611345 4.104012 -0.476813
v -9.223633 4.104012 -0.076813
v -9.223633 1.132896 -0.076813
v -10.611345 1.132896 -0.076813
v -10.611345 4.104012 -0.076813
v -5.754352 1.132896 -0.476814
v -7.142065 1.132896 -0.476814
v -5.754352 4.104012 -0.476815
v -7.142065 4.104012 -0.476814
v -5.754352 4.104012 -0.076815
v -5.754352 1.132896 -0.076814
v -7.142065 1.132896 -0.076814
v -7.142065 4.104012 -0.076814
vn -0.0000 -0.0000 -1.0000
vn -0.0000 -0.0000 1.0000
vn -1.0000 -0.0000 -0.0000
vn 1.0000 -0.0000 -0.0000
vn -0.0000 1.0000 -0.0000
vn -0.0000 -1.0000 -0.0000
vt 0.000000 0.000000
vt 1.000000 0.000000
vt 1.000000 1.000000
vt 0.000000 1.000000
s 0
f 65/9/13 66/10/13 68/11/13 67/12/13
f 70/9/14 69/12/14 72/11/14 71/10/14
f 66/10/15 71/10/15 72/11/15 68/11/15
f 67/12/16 69/12/16 70/9/16 65/9/16
f 68/11/17 72/11/17 69/12/17 67/12/17
f 65/9/18 70/9/18 71/10/18 66/10/18
f 73/9/13 74/10/13 76/11/13 75/12/13
f 78/9/14 77/12/14 80/11/14 79/10/14
f 74/10/15 79/10/15 80/11/15 76/11/15
f 75/12/16 77/12/16 78/9/16 73/9/16
f 76/11/17 80/11/17 77/12/17 75/12/17
f 73/9/18 78/9/18 79/10/18 74/10/18
f 81/9/13 82/10/13 84/11/13 83/12/13
f 86/9/14 85/12/14 88/11/14 87/10/14
f 82/10/15 87/10/15 88/11/15 84/11/15
f 83/12/16 85/12/16 86/9/16 81/9/16
f 84/11/17 88/11/17 85/12/17 83/12/17
f 81/9/18 86/9/18 87/10/18 82/10/18
f 89/9/13 90/10/13 92/11/13 91/12/13
f 94/9/14 93/12/14 96/11/14 95/10/14
f 90/10/15 95/10/15 96/11/15 92/11/15
f 91/12/16 93/12/16 94/9/16 89/9/16
f 92/11/17 96/11/17 93/12/17 91/12/17
f 89/9/18 94/9/18 95/10/18 90/10/18
o hallway.004
v -4.786050 1.133464 -3.631371
v -18.494431 1.133464 -3.631366
v -4.786049 1.133464 -0.436817
v -18.494429 1.133464 -0.436813
v -4.786050 5.388858 -3.631371
v -18.494431 5.388858 -3.631366
v -4.786049 5.388858 -0.436817
v -18.494429 5.388858 -0.436813
v -4.786050 0.933464 -3.831370
v -18.494431 0.933464 -3.831366
v -4.786049 0.933464 -0.236817
v -18.494429 0.933464 -0.236812
v -4.786050 5.388858 -3.831370
v -18.494431 5.388858 -3.831366
v -4.786049 5.388858 -0.236817
v -18.494429 5.388858 -0.236812
vn -0.0000 1.0000 -0.0000
vn -0.0000 -0.0000 -1.0000
vn -0.0000 -0.0000 1.0000
vn -0.0000 -1.0000 -0.0000
vn 1.0000 -0.0000 -0.0000
vn -1.0000 -0.0000 -0.0000
vt 0.000000 0.000000
vt 1.000000 0.000000
vt 1.000000 1.000000
vt 0.000000 1.000000
s 0
f 97/13/19 98/14/19 100/15/19 99/16/19
f 99/16/20 100/15/20 104/15/20 103/16/20
f 98/14/21 97/13/21 101/13/21 102/14/21
f 105/13/22 107/16/22 108/15/22 106/14/22
f 107/16/21 111/16/21 112/15/21 108/15/21
f 106/14/20 110/14/20 109/13/20 105/13/20
f 97/13/23 99/16/23 107/16/23 105/13/23
f 100/15/24 98/14/24 106/14/24 108/15/24
f 102/14/19 101/13/19 109/13/19 110/14/19
f 103/16/19 104/15/19 112/15/19 111/16/19
f 99/16/23 103/16/23 111/16/23 107/16/23
f 104/15/24 100/15/24 108/15/24 112/15/24
f 98/14/24 102/14/24 110/14/24 106/14/24
f 101/13/23 97/13/23 105/13/23 109/13/23
o Plane.004
v -18.412971 1.133461 -3.631360
v -18.412971 1.133461 -0.436806
v -18.412971 5.371087 -3.631360
v -18.412971 5.371087 -0.436806
v -18.494480 1.133461 -3.631360
v -18.494480 1.133461 -0.436806
v -18.494480 5.371087 -3.631360
v -18.494480 5.371087 -0.436806
vn 1.0000 -0.0000 -0.0000
vn -1.0000 -0.0000 -0.0000
vn -0.0000 -0.0000 -1.0000
vn -0.0000 -1.0000 -0.0000
vn -0.0000 -0.0000 1.0000
vn -0.0000 1.0000 -0.0000
vt 0.000000 0.000000
vt 0.000000 1.000000
vt 1.000000 1.000000
vt 1.000000 0.000000
s 0
f 113/17/25 115/18/25 116/19/25 114/20/25
f 117/17/26 118/20/26 120/19/26 119/18/26
f 115/18/27 113/17/27 117/17/27 119/18/27
f 113/17/28 114/20/28 118/20/28 117/17/28
f 114/20/29 116/19/29 120/19/29 118/20/29
f 116/19/30 115/18/30 119/18/30 120/19/30
o roof_hallway.004
v -4.786105 5.391087 -3.631370
v -18.494484 5.391087 -3.631362
v -4.786103 5.391087 -0.436816
v -18.494482 5.391087 -0.436809
v -4.786105 5.371086 -3.631370
v -18.494484 5.371086 -3.631362
v -4.786103 5.371086 -0.436816
v -18.494482 5.371086 -0.436809
vn -0.0000 1.0000 -0.0000
vn -0.0000 -1.0000 -0.0000
vn 1.0000 -0.0000 -0.0000
vn -0.0000 -0.0000 -1.0000
vn -1.0000 -0.0000 -0.0000
vn -0.0000 -0.0000 1.0000
vt 0.000000 0.000000
vt 1.000000 0.000000
vt 1.000000 1.000000
vt 0.000000 1.000000
s 0
f 121/21/31 122/22/31 124/23/31 123/24/31
f 125/21/32 127/24/32 128/23/32 126/22/32
f 121/21/33 123/24/33 127/24/33 125/21/33
f 122/22/34 121/21/34 125/21/34 126/22/34
f 124/23/35 122/22/35 126/22/35 128/23/35
f 123/24/36 124/23/36 128/23/36 127/24/36
