# Blender 3.6.1
# www.blender.org
mtllib hallway_guk_office.mtl
o Plane.010
v 15.010974 5.366144 11.332419
v 15.010974 5.366144 12.365164
v 16.043718 5.366144 11.332419
v 16.043718 5.366144 12.365164
v 16.043718 5.351772 11.332419
v 15.010974 5.351772 11.332419
v 15.010974 5.351772 12.365164
v 16.043718 5.351772 12.365164
v 11.396370 5.366144 11.332419
v 11.396370 5.366144 12.365163
v 12.429114 5.366144 11.332419
v 12.429114 5.366144 12.365163
v 12.429114 5.351772 11.332419
v 11.396370 5.351772 11.332419
v 11.396370 5.351772 12.365163
v 12.429114 5.351772 12.365163
v 7.781766 5.366144 11.332419
v 7.781766 5.366144 12.365163
v 8.814510 5.366144 11.332419
v 8.814510 5.366144 12.365163
v 8.814510 5.351772 11.332419
v 7.781766 5.351772 11.332419
v 7.781766 5.351772 12.365163
v 8.814510 5.351772 12.365163
v 4.167162 5.366144 11.332418
v 4.167162 5.366144 12.365163
v 5.199907 5.366144 11.332418
v 5.199907 5.366144 12.365163
v 5.199907 5.351772 11.332418
v 4.167162 5.351772 11.332418
v 4.167162 5.351772 12.365163
v 5.199907 5.351772 12.365163
vn -0.0000 1.0000 -0.0000
vn -0.0000 -1.0000 -0.0000
vn -0.0000 -0.0000 1.0000
vn -0.0000 -0.0000 -1.0000
vn 1.0000 -0.0000 -0.0000
vn -1.0000 -0.0000 -0.0000
vt 0.000000 0.000000
vt 1.000000 0.000000
vt 1.000000 1.000000
vt 0.000000 1.000000
s 0
usemtl Material
f 1/1/1 2/2/1 4/3/1 3/4/1
f 6/1/2 5/4/2 8/3/2 7/2/2
f 2/2/3 7/2/3 8/3/3 4/3/3
f 3/4/4 5/4/4 6/1/4 1/1/4
f 4/3/5 8/3/5 5/4/5 3/4/5
f 1/1/6 6/1/6 7/2/6 2/2/6
f 9/1/1 10/2/1 12/3/1 11/4/1
f 14/1/2 13/4/2 16/3/2 15/2/2
f 10/2/3 15/2/3 16/3/3 12/3/3
f 11/4/4 13/4/4 14/1/4 9/1/4
f 12/3/5 16/3/5 13/4/5 11/4/5
f 9/1/6 14/1/6 15/2/6 10/2/6
f 17/1/1 18/2/1 20/3/1 19/4/1
f 22/1/2 21/4/2 24/3/2 23/2/2
f 18/2/3 23/2/3 24/3/3 20/3/3
f 19/4/4 21/4/4 22/1/4 17/1/4
f 20/3/5 24/3/5 21/4/5 19/4/5
f 17/1/6 22/1/6 23/2/6 18/2/6
f 25/1/1 26/2/1 28/3/1 27/4/1
f 30/1/2 29/4/2 32/3/2 31/2/2
f 26/2/3 31/2/3 32/3/3 28/3/3
f 27/4/4 29/4/4 30/1/4 25/1/4
f 28/3/5 32/3/5 29/4/5 27/4/5
f 25/1/6 30/1/6 31/2/6 26/2/6
o door_elevator.009
v 15.404680 1.133487 13.238997
v 16.792393 1.133487 13.238997
v 15.404680 4.104604 13.238997
v 16.792393 4.104604 13.238997
v 15.404680 4.104604 12.838997
v 15.404680 1.133487 12.838997
v 16.792393 1.133487 12.838997
v 16.792393 4.104604 12.838997
v 11.935398 1.133487 13.238997
v 13.323111 1.133487 13.238997
v 11.935398 4.104604 13.238997
v 13.323111 4.104604 13.238997
v 11.935398 4.104604 12.838997
v 11.935398 1.133487 12.838997
v 13.323111 1.133487 12.838997
v 13.323111 4.104604 12.838997
v 8.466117 1.133487 13.238997
v 9.853828 1.133487 13.238997
v 8.466117 4.104604 13.238997
v 9.853828 4.104604 13.238997
v 8.466117 4.104604 12.838997
v 8.466117 1.133487 12.838997
v 9.853828 1.133487 12.838997
v 9.853828 4.104604 12.838997
v 4.996835 1.133487 13.238997
v 6.384548 1.133487 13.238997
v 4.996835 4.104604 13.238997
v 6.384548 4.104604 13.238997
v 4.996835 4.104604 12.838997
v 4.996835 1.133487 12.838997
v 6.384548 1.133487 12.838997
v 6.384548 4.104604 12.838997
vn -0.0000 -0.0000 1.0000
vn -0.0000 -0.0000 -1.0000
vn 1.0000 -0.0000 -0.0000
vn -1.0000 -0.0000 -0.0000
vn -0.0000 1.0000 -0.0000
vn -0.0000 -1.0000 -0.0000
vt 0.000000 0.000000
vt 1.000000 0.000000
vt 1.000000 1.000000
vt 0.000000 1.000000
s 0
f 33/5/7 34/6/7 36/7/7 35/8/7
f 38/5/8 37/8/8 40/7/8 39/6/8
f 34/6/9 39/6/9 40/7/9 36/7/9
f 35/8/10 37/8/10 38/5/10 33/5/10
f 36/7/11 40/7/11 37/8/11 35/8/11
f 33/5/12 38/5/12 39/6/12 34/6/12
f 41/5/7 42/6/7 44/7/7 43/8/7
f 46/5/8 45/8/8 48/7/8 47/6/8
f 42/6/9 47/6/9 48/7/9 44/7/9
f 43/8/10 45/8/10 46/5/10 41/5/10
f 44/7/11 48/7/11 45/8/11 43/8/11
f 41/5/12 46/5/12 47/6/12 42/6/12
f 49/5/7 50/6/7 52/7/7 51/8/7
f 54/5/8 53/8/8 56/7/8 55/6/8
f 50/6/9 55/6/9 56/7/9 52/7/9
f 51/8/10 53/8/10 54/5/10 49/5/10
f 52/7/11 56/7/11 53/8/11 51/8/11
f 49/5/12 54/5/12 55/6/12 50/6/12
f 57/5/7 58/6/7 60/7/7 59/8/7
f 62/5/8 61/8/8 64/7/8 63/6/8
f 58/6/9 63/6/9 64/7/9 60/7/9
f 59/8/10 61/8/10 62/5/10 57/5/10
f 60/7/11 64/7/11 61/8/11 59/8/11
f 57/5/12 62/5/12 63/6/12 58/6/12
o door_elevator.010
v 16.792393 1.133486 9.324444
v 15.404681 1.133486 9.324445
v 16.792393 4.104602 9.324444
v 15.404681 4.104602 9.324444
v 16.792393 4.104602 9.724443
v 16.792393 1.133486 9.724444
v 15.404681 1.133486 9.724444
v 15.404681 4.104602 9.724444
v 13.323112 1.133486 9.324445
v 11.935399 1.133486 9.324446
v 13.323112 4.104602 9.324445
v 11.935399 4.104602 9.324445
v 13.323112 4.104602 9.724444
v 13.323112 1.133486 9.724445
v 11.935399 1.133486 9.724445
v 11.935399 4.104602 9.724445
vn -0.0000 -0.0000 -1.0000
vn -0.0000 -0.0000 1.0000
vn -1.0000 -0.0000 -0.0000
vn 1.0000 -0.0000 -0.0000
vn -0.0000 1.0000 -0.0000
vn -0.0000 -1.0000 -0.0000
vt 0.000000 0.000000
vt 1.000000 0.000000
vt 1.000000 1.000000
vt 0.000000 1.000000
s 0
f 65/9/13 66/10/13 68/11/13 67/12/13
f 70/9/14 69/12/14 72/11/14 71/10/14
f 66/10/15 71/10/15 72/11/15 68/11/15
f 67/12/16 69/12/16 70/9/16 65/9/16
f 68/11/17 72/11/17 69/12/17 67/12/17
f 65/9/18 70/9/18 71/10/18 66/10/18
f 73/9/13 74/10/13 76/11/13 75/12/13
f 78/9/14 77/12/14 80/11/14 79/10/14
f 74/10/15 79/10/15 80/11/15 76/11/15
f 75/12/16 77/12/16 78/9/16 73/9/16
f 76/11/17 80/11/17 77/12/17 75/12/17
f 73/9/18 78/9/18 79/10/18 74/10/18
o roof_hallway.002
v 4.167163 5.388428 12.879006
v 17.862827 5.388428 12.878997
v 4.167163 5.388428 9.684453
v 17.862825 5.388428 9.684443
v 4.167163 5.368428 12.879006
v 17.862827 5.368428 12.878997
v 4.167163 5.368428 9.684453
v 17.862825 5.368428 9.684443
vn -0.0000 1.0000 -0.0000
vn -0.0000 -1.0000 -0.0000
vn -1.0000 -0.0000 -0.0000
vn -0.0000 -0.0000 1.0000
vn 1.0000 -0.0000 -0.0000
vn -0.0000 -0.0000 -1.0000
vt 0.000000 0.000000
vt 1.000000 0.000000
vt 1.000000 1.000000
vt 0.000000 1.000000
s 0
f 81/13/19 82/14/19 84/15/19 83/16/19
f 85/13/20 87/16/20 88/15/20 86/14/20
f 81/13/21 83/16/21 87/16/21 85/13/21
f 82/14/22 81/13/22 85/13/22 86/14/22
f 84/15/23 82/14/23 86/14/23 88/15/23
f 83/16/24 84/15/24 88/15/24 87/16/24
o hallway.007
v 17.862825 1.133464 9.684443
v 4.154445 1.133464 9.684447
v 17.862825 1.133464 12.878997
v 4.154446 1.133464 12.879001
v 17.862825 5.388858 9.684443
v 4.154445 5.388858 9.684447
v 17.862825 5.388858 12.878997
v 4.154446 5.388858 12.879001
v 17.862825 0.933464 9.484443
v 4.154445 0.933464 9.484447
v 17.862825 0.933464 13.078997
v 4.154446 0.933464 13.079001
v 17.862825 5.388858 9.484443
v 4.154445 5.388858 9.484447
v 17.862825 5.388858 13.078997
v 4.154446 5.388858 13.079001
vn -0.0000 1.0000 -0.0000
vn -0.0000 -0.0000 -1.0000
vn -0.0000 -0.0000 1.0000
vn -0.0000 -1.0000 -0.0000
vn 1.0000 -0.0000 -0.0000
vn -1.0000 -0.0000 -0.0000
vt 0.000000 0.000000
vt 1.000000 0.000000
vt 1.000000 1.000000
vt 0.000000 1.000000
s 0
f 89/17/25 90/18/25 92/19/25 91/20/25
f 91/20/26 92/19/26 96/19/26 95/20/26
f 90/18/27 89/17/27 93/17/27 94/18/27
f 97/17/28 99/20/28 100/19/28 98/18/28
f 99/20/27 103/20/27 104/19/27 100/19/27
f 98/18/26 102/18/26 101/17/26 97/17/26
f 89/17/29 91/20/29 99/20/29 97/17/29
f 92/19/30 90/18/30 98/18/30 100/19/30
f 94/18/25 93/17/25 101/17/25 102/18/25
f 95/20/25 96/19/25 104/19/25 103/20/25
f 91/20/29 95/20/29 103/20/29 99/20/29
f 96/19/30 92/19/30 100/19/30 104/19/30
f 90/18/30 94/18/30 102/18/30 98/18/30
f 93/17/29 89/17/29 97/17/29 101/17/29
