# Blender 3.6.1
# www.blender.org
mtllib guk.mtl
o column_corner.001
v 18.607168 1.133489 2.908309
v 18.607168 5.388428 2.908309
v 18.607168 1.133489 2.376683
v 18.075544 1.133489 2.908309
v 18.607168 5.388428 2.376683
v 18.075544 5.388428 2.908309
vn -0.0000 -0.0000 1.0000
vn 1.0000 -0.0000 -0.0000
vt 1.563873 2.654758
vt 1.049601 2.654758
vt 1.049601 -1.654758
vt 1.563873 -1.654758
vt 0.535330 2.654758
vt 0.535330 -1.654758
s 0
usemtl 
f 4/1/1 1/2/1 2/3/1 6/4/1
f 1/2/2 3/5/2 5/6/2 2/3/2
o Plane.011
v 18.595400 5.351772 12.365164
v 19.628143 5.351772 12.365164
v 18.595400 5.351772 11.332420
v 19.628143 5.351772 11.332420
v 18.595400 5.366060 11.332420
v 18.595400 5.366060 12.365164
v 19.628143 5.366060 12.365164
v 19.628143 5.366060 11.332420
v 22.726374 5.351772 12.365164
v 23.759117 5.351772 12.365164
v 22.726374 5.351772 11.332420
v 23.759117 5.351772 11.332420
v 22.726374 5.366060 11.332420
v 22.726374 5.366060 12.365164
v 23.759117 5.366060 12.365164
v 23.759117 5.366060 11.332420
v 26.857346 5.351772 12.365164
v 27.890089 5.351772 12.365164
v 26.857346 5.351772 11.332420
v 27.890089 5.351772 11.332420
v 26.857346 5.366060 11.332420
v 26.857346 5.366060 12.365164
v 27.890089 5.366060 12.365164
v 27.890089 5.366060 11.332420
v 30.988319 5.351772 12.365164
v 32.021065 5.351772 12.365164
v 30.988319 5.351772 11.332420
v 32.021065 5.351772 11.332420
v 30.988319 5.366060 11.332420
v 30.988319 5.366060 12.365164
v 32.021065 5.366060 12.365164
v 32.021065 5.366060 11.332420
v 18.595400 5.351772 8.750562
v 19.628143 5.351772 8.750562
v 18.595400 5.351772 7.717818
v 19.628143 5.351772 7.717818
v 18.595400 5.366060 7.717818
v 18.595400 5.366060 8.750562
v 19.628143 5.366060 8.750562
v 19.628143 5.366060 7.717818
v 22.726374 5.351772 8.750562
v 23.759117 5.351772 8.750562
v 22.726374 5.351772 7.717818
v 23.759117 5.351772 7.717818
v 22.726374 5.366060 7.717818
v 22.726374 5.366060 8.750562
v 23.759117 5.366060 8.750562
v 23.759117 5.366060 7.717818
v 26.857346 5.351772 8.750562
v 27.890089 5.351772 8.750562
v 26.857346 5.351772 7.717818
v 27.890089 5.351772 7.717818
v 26.857346 5.366060 7.717818
v 26.857346 5.366060 8.750562
v 27.890089 5.366060 8.750562
v 27.890089 5.366060 7.717818
v 30.988319 5.351772 8.750562
v 32.021065 5.351772 8.750562
v 30.988319 5.351772 7.717818
v 32.021065 5.351772 7.717818
v 30.988319 5.366060 7.717818
v 30.988319 5.366060 8.750562
v 32.021065 5.366060 8.750562
v 32.021065 5.366060 7.717818
v 18.595400 5.351772 5.135960
v 19.628143 5.351772 5.135960
v 18.595400 5.351772 4.103217
v 19.628143 5.351772 4.103217
v 18.595400 5.366060 4.103217
v 18.595400 5.366060 5.135960
v 19.628143 5.366060 5.135960
v 19.628143 5.366060 4.103217
v 22.726374 5.351772 5.135960
v 23.759117 5.351772 5.135960
v 22.726374 5.351772 4.103217
v 23.759117 5.351772 4.103217
v 22.726374 5.366060 4.103217
v 22.726374 5.366060 5.135960
v 23.759117 5.366060 5.135960
v 23.759117 5.366060 4.103217
v 26.857346 5.351772 5.135960
v 27.890089 5.351772 5.135960
v 26.857346 5.351772 4.103217
v 27.890089 5.351772 4.103217
v 26.857346 5.366060 4.103217
v 26.857346 5.366060 5.135960
v 27.890089 5.366060 5.135960
v 27.890089 5.366060 4.103217
v 30.988319 5.351772 5.135960
v 32.021065 5.351772 5.135960
v 30.988319 5.351772 4.103217
v 32.021065 5.351772 4.103217
v 30.988319 5.366060 4.103217
v 30.988319 5.366060 5.135960
v 32.021065 5.366060 5.135960
v 32.021065 5.366060 4.103217
vn -0.0000 -1.0000 -0.0000
vn -0.0000 1.0000 -0.0000
vn 1.0000 -0.0000 -0.0000
vn -1.0000 -0.0000 -0.0000
vn -0.0000 -0.0000 -1.0000
vn -0.0000 -0.0000 1.0000
vt 0.000000 0.000000
vt 0.000000 1.000000
vt 1.000000 1.000000
vt 1.000000 0.000000
s 0
usemtl Material
f 7/7/3 9/8/3 10/9/3 8/10/3
f 12/7/4 13/10/4 14/9/4 11/8/4
f 8/10/5 10/9/5 14/9/5 13/10/5
f 9/8/6 7/7/6 12/7/6 11/8/6
f 10/9/7 9/8/7 11/8/7 14/9/7
f 7/7/8 8/10/8 13/10/8 12/7/8
f 15/7/3 17/8/3 18/9/3 16/10/3
f 20/7/4 21/10/4 22/9/4 19/8/4
f 16/10/5 18/9/5 22/9/5 21/10/5
f 17/8/6 15/7/6 20/7/6 19/8/6
f 18/9/7 17/8/7 19/8/7 22/9/7
f 15/7/8 16/10/8 21/10/8 20/7/8
f 23/7/3 25/8/3 26/9/3 24/10/3
f 28/7/4 29/10/4 30/9/4 27/8/4
f 24/10/5 26/9/5 30/9/5 29/10/5
f 25/8/6 23/7/6 28/7/6 27/8/6
f 26/9/7 25/8/7 27/8/7 30/9/7
f 23/7/8 24/10/8 29/10/8 28/7/8
f 31/7/3 33/8/3 34/9/3 32/10/3
f 36/7/4 37/10/4 38/9/4 35/8/4
f 32/10/5 34/9/5 38/9/5 37/10/5
f 33/8/6 31/7/6 36/7/6 35/8/6
f 34/9/7 33/8/7 35/8/7 38/9/7
f 31/7/8 32/10/8 37/10/8 36/7/8
f 39/7/3 41/8/3 42/9/3 40/10/3
f 44/7/4 45/10/4 46/9/4 43/8/4
f 40/10/5 42/9/5 46/9/5 45/10/5
f 41/8/6 39/7/6 44/7/6 43/8/6
f 42/9/7 41/8/7 43/8/7 46/9/7
f 39/7/8 40/10/8 45/10/8 44/7/8
f 47/7/3 49/8/3 50/9/3 48/10/3
f 52/7/4 53/10/4 54/9/4 51/8/4
f 48/10/5 50/9/5 54/9/5 53/10/5
f 49/8/6 47/7/6 52/7/6 51/8/6
f 50/9/7 49/8/7 51/8/7 54/9/7
f 47/7/8 48/10/8 53/10/8 52/7/8
f 55/7/3 57/8/3 58/9/3 56/10/3
f 60/7/4 61/10/4 62/9/4 59/8/4
f 56/10/5 58/9/5 62/9/5 61/10/5
f 57/8/6 55/7/6 60/7/6 59/8/6
f 58/9/7 57/8/7 59/8/7 62/9/7
f 55/7/8 56/10/8 61/10/8 60/7/8
f 63/7/3 65/8/3 66/9/3 64/10/3
f 68/7/4 69/10/4 70/9/4 67/8/4
f 64/10/5 66/9/5 70/9/5 69/10/5
f 65/8/6 63/7/6 68/7/6 67/8/6
f 66/9/7 65/8/7 67/8/7 70/9/7
f 63/7/8 64/10/8 69/10/8 68/7/8
f 71/7/3 73/8/3 74/9/3 72/10/3
f 76/7/4 77/10/4 78/9/4 75/8/4
f 72/10/5 74/9/5 78/9/5 77/10/5
f 73/8/6 71/7/6 76/7/6 75/8/6
f 74/9/7 73/8/7 75/8/7 78/9/7
f 71/7/8 72/10/8 77/10/8 76/7/8
f 79/7/3 81/8/3 82/9/3 80/10/3
f 84/7/4 85/10/4 86/9/4 83/8/4
f 80/10/5 82/9/5 86/9/5 85/10/5
f 81/8/6 79/7/6 84/7/6 83/8/6
f 82/9/7 81/8/7 83/8/7 86/9/7
f 79/7/8 80/10/8 85/10/8 84/7/8
f 87/7/3 89/8/3 90/9/3 88/10/3
f 92/7/4 93/10/4 94/9/4 91/8/4
f 88/10/5 90/9/5 94/9/5 93/10/5
f 89/8/6 87/7/6 92/7/6 91/8/6
f 90/9/7 89/8/7 91/8/7 94/9/7
f 87/7/8 88/10/8 93/10/8 92/7/8
f 95/7/3 97/8/3 98/9/3 96/10/3
f 100/7/4 101/10/4 102/9/4 99/8/4
f 96/10/5 98/9/5 102/9/5 101/10/5
f 97/8/6 95/7/6 100/7/6 99/8/6
f 98/9/7 97/8/7 99/8/7 102/9/7
f 95/7/8 96/10/8 101/10/8 100/7/8
o column_half.003
v 32.565941 1.133489 10.022594
v 32.565941 1.133489 8.959343
v 32.565941 5.388426 8.959343
v 32.565941 5.388426 10.022594
v 33.097565 1.133489 10.022594
v 33.097565 1.133489 8.959343
v 33.097565 5.388426 10.022594
v 33.097565 5.388426 8.959343
vn -1.0000 -0.0000 -0.0000
vn -0.0000 -0.0000 -1.0000
vn -0.0000 -0.0000 1.0000
vt 1.049601 2.654758
vt 0.021058 2.654758
vt 0.021058 -1.654758
vt 1.049601 -1.654758
vt 1.563873 2.654758
vt 1.563873 -1.654758
vt 3.106687 2.654758
vt 2.592416 2.654758
vt 2.592416 -1.654758
vt 3.106687 -1.654758
s 0
usemtl 
f 104/11/9 103/12/9 106/13/9 105/14/9
f 108/15/10 104/11/10 105/14/10 110/16/10
f 103/17/11 107/18/11 109/19/11 106/20/11
o column_1.002
v 24.131569 1.133489 10.022594
v 25.194820 1.133489 10.022594
v 24.131569 1.133489 8.959343
v 25.194820 1.133489 8.959343
v 24.131569 5.388428 8.959343
v 24.131569 5.388428 10.022594
v 25.194820 5.388428 10.022594
v 25.194820 5.388428 8.959343
vn 1.0000 -0.0000 -0.0000
vn -1.0000 -0.0000 -0.0000
vn -0.0000 -0.0000 -1.0000
vn -0.0000 -0.0000 1.0000
vt 0.021058 2.654758
vt -1.007484 2.654758
vt -1.007484 -1.654758
vt 0.021058 -1.654758
vt 1.049601 2.654758
vt 1.049601 -1.654758
vt 2.078144 2.654758
vt 2.078144 -1.654758
vt 3.106687 2.654758
vt 3.106687 -1.654758
s 0
usemtl 
f 112/21/12 114/22/12 118/23/12 117/24/12
f 113/25/13 111/21/13 116/24/13 115/26/13
f 114/27/14 113/25/14 115/26/14 118/28/14
f 111/29/15 112/27/15 117/28/15 116/30/15
o column_1/4.001
v 32.353222 1.133490 2.897154
v 32.353222 5.388429 2.897154
v 32.884846 1.133490 2.897154
v 32.353222 1.133490 2.365529
v 32.884846 5.388429 2.897154
v 32.353222 5.388429 2.365529
vn -1.0000 -0.0000 -0.0000
vn -0.0000 -0.0000 1.0000
vt 1.563873 2.654758
vt 1.049601 2.654758
vt 1.049601 -1.654758
vt 1.563873 -1.654758
vt 0.535330 2.654758
vt 0.535330 -1.654758
s 0
usemtl 
f 122/31/16 119/32/16 120/33/16 124/34/16
f 119/32/17 121/35/17 123/36/17 120/33/17
o column_6/8.002
v 17.525665 1.133489 10.022594
v 18.588917 1.133489 10.022594
v 18.588917 1.133489 8.959343
v 17.525665 5.388428 10.022594
v 18.588917 5.388428 10.022594
v 18.588917 5.388428 8.959343
v 17.525665 1.133489 9.490969
v 18.057291 1.133489 8.959343
v 17.525665 5.388428 9.490969
v 18.057291 5.388428 8.959343
vn 1.0000 -0.0000 -0.0000
vn -1.0000 -0.0000 -0.0000
vn -0.0000 -0.0000 1.0000
vn -0.0000 -0.0000 -1.0000
vt 0.021058 2.654758
vt -1.007484 2.654758
vt -1.007484 -1.654758
vt 0.021058 -1.654758
vt 0.535330 2.654758
vt 0.535330 -1.654758
vt 3.106687 2.654758
vt 2.078144 2.654758
vt 2.078144 -1.654758
vt 3.106687 -1.654758
vt 1.563873 2.654758
vt 1.563873 -1.654758
s 0
usemtl 
f 126/37/18 127/38/18 130/39/18 129/40/18
f 131/41/19 125/37/19 128/40/19 133/42/19
f 125/43/20 126/44/20 129/45/20 128/46/20
f 127/44/21 132/47/21 134/48/21 130/45/21
o door_elevator.004
v 31.117460 1.111121 13.238996
v 32.505173 1.111121 13.238996
v 31.117460 4.082237 13.238996
v 32.505173 4.082237 13.238996
v 31.117460 4.082237 12.838996
v 31.117460 1.111121 12.838996
v 32.505173 1.111121 12.838996
v 32.505173 4.082237 12.838996
vn -0.0000 -0.0000 1.0000
vn -0.0000 -0.0000 -1.0000
vn 1.0000 -0.0000 -0.0000
vn -1.0000 -0.0000 -0.0000
vn -0.0000 1.0000 -0.0000
vn -0.0000 -1.0000 -0.0000
vt 0.000000 0.000000
vt 1.000000 0.000000
vt 1.000000 1.000000
vt 0.000000 1.000000
s 0
f 135/49/22 136/50/22 138/51/22 137/52/22
f 140/49/23 139/52/23 142/51/23 141/50/23
f 136/50/24 141/50/24 142/51/24 138/51/24
f 137/52/25 139/52/25 140/49/25 135/49/25
f 138/51/26 142/51/26 139/52/26 137/52/26
f 135/49/27 140/49/27 141/50/27 136/50/27
o Plane.036
v 18.101603 1.150943 12.879286
v 17.862818 0.933465 13.078997
v 33.084839 0.933465 13.078997
v 17.862818 0.933465 2.165529
v 33.084839 0.933465 2.165529
v 17.862818 5.388859 2.165529
v 17.862818 5.388859 13.078997
v 33.084839 5.388859 13.078997
v 33.084839 5.388859 2.165529
v 18.062817 1.133465 12.878996
v 32.884842 1.133465 12.878996
v 18.062817 1.133465 2.365529
v 32.884842 1.133465 2.365529
v 18.062817 5.388859 2.365529
v 32.884842 5.388859 12.878996
v 32.884842 5.388859 2.365529
v 33.084839 5.089087 10.022592
v 32.884842 5.089087 10.022592
v 32.884842 4.232710 10.022592
v 33.084839 1.774002 10.022592
v 32.884842 1.774002 10.022593
v 33.084839 5.089087 12.789415
v 32.884842 5.089087 12.789415
v 33.084839 1.774002 12.789415
v 32.884842 1.774002 12.789415
v 33.084839 5.089087 6.192517
v 33.084839 3.536133 6.192517
v 32.884842 5.089087 6.192517
v 32.884842 4.811017 6.192517
v 33.084839 1.774002 6.192518
v 32.884842 1.774002 6.192518
v 33.084839 5.089087 8.959341
v 32.884842 5.089087 8.959341
v 32.884842 4.393251 8.959342
v 33.084839 2.263180 8.959341
v 33.084839 1.774002 8.959341
v 32.884842 1.774002 8.959341
v 33.084843 4.848043 3.341016
v 33.084839 5.089087 3.341016
v 32.884842 5.089087 3.341016
v 33.084839 1.774002 3.341016
v 32.884842 1.774002 3.341016
v 33.084839 5.089087 6.107840
v 32.884842 5.089087 4.350892
v 32.884842 5.089087 6.107840
v 33.084839 3.575091 6.107840
v 32.884842 4.823803 6.107840
v 33.084839 1.774002 6.107840
v 32.884842 1.774002 6.107840
v 32.353218 1.137464 2.165529
v 32.353218 1.137464 2.365529
v 32.353214 5.388859 2.165529
v 32.353218 5.388859 2.365529
v 29.158661 1.137464 2.165529
v 29.158661 1.137464 2.365529
v 29.158659 5.388859 2.165529
v 29.158659 5.388859 2.365529
v 28.117126 1.137464 2.165529
v 28.117126 1.137464 2.365529
v 28.117126 5.388859 2.165529
v 28.117126 5.388859 2.365529
v 24.922569 1.137464 2.165529
v 24.922569 1.137464 2.365529
v 24.922569 5.388859 2.165529
v 24.922569 5.388859 2.365529
v 17.862818 1.150943 9.684729
v 18.062817 1.150943 9.684729
v 17.862818 5.388859 9.684729
v 18.062817 5.388859 9.684728
v 18.101603 5.388859 12.879286
v 18.101603 5.388859 12.878997
v 18.101601 1.150943 12.878996
v 17.862818 1.150943 12.879286
v 18.062527 5.388859 12.879286
v 17.862818 5.388859 12.879286
v 18.062817 1.150943 12.878996
v 29.295952 1.138811 13.078997
v 29.295952 1.138811 12.878996
v 29.295950 5.388859 13.078997
v 29.295952 5.388859 12.878996
v 26.101395 1.138811 13.078997
v 26.101395 1.138811 12.878996
v 26.101395 5.388859 13.078997
v 26.101395 5.388859 12.878997
vn 1.0000 -0.0000 -0.0008
vn -0.0000 1.0000 -0.0000
vn -0.0000 -1.0000 -0.0000
vn -1.0000 -0.0000 -0.0000
vn -0.0000 -0.0000 -1.0000
vn -0.0000 -0.0000 1.0000
vn 1.0000 -0.0000 -0.0000
vt 0.000000 0.000000
vt 0.000091 0.000000
vt 0.000090 0.995999
vt 0.000000 0.995999
vt 0.000091 0.000000
vt 1.000000 0.000000
vt 0.000000 1.000000
vt 1.000000 1.000000
vt 0.000000 0.018299
vt 0.000000 0.018299
vt 0.000000 0.311016
vt 0.000000 0.311016
vt 0.463785 1.000000
vt 0.463785 1.000000
vt 0.673649 1.000000
vt 0.673650 1.000000
vt 0.742072 1.000000
vt 0.742072 1.000000
vt 0.951936 1.000000
vt 0.951936 1.000000
vt 0.751091 0.000000
vt 0.751092 0.000000
vt 0.541227 0.000000
vt 0.541227 0.000000
vt 1.000000 0.026534
vt 1.000000 0.026534
vt 1.000000 0.280058
vt 0.000000 0.303826
vt 0.000000 0.303826
vt 0.964133 1.000000
vt 0.964133 1.000000
vt 0.748605 1.000000
vt 0.748605 1.000000
vt 0.678336 1.000000
vt 0.678336 1.000000
vt 0.462808 1.000000
vt 0.462808 1.000000
vt 0.002617 0.000000
vt 0.002617 0.000000
vt 0.542340 0.000000
vt 0.757868 0.000000
vt 1.000000 0.008521
vt 1.000000 0.271690
vt 1.000000 0.271690
vt 1.000000 0.372822
vt 1.000000 0.372822
vt 1.000000 0.635992
vt 1.000000 0.644046
vt 1.000000 0.644046
vt 1.000000 0.907215
vt 1.000000 0.907215
vt 1.000000 0.811160
vt 0.002636 0.000000
vt 0.375000 0.253035
vt 0.375000 0.363147
vt 0.625000 0.382134
vt 0.625000 0.272023
vt 0.560418 0.267118
vt 1.000000 0.644046
vt 1.000000 0.372822
vt 0.128035 0.750000
vt 0.238147 0.750000
vt 0.238147 0.500000
vt 0.128035 0.500000
vt 0.375000 0.886853
vt 0.375000 0.996965
vt 0.625000 0.977977
vt 0.625000 0.867866
vt 1.000000 0.377484
vt 1.000000 0.631007
vt 1.000000 0.631007
vt 1.000000 0.638766
vt 1.000000 0.638766
vt 1.000000 0.892290
vt 1.000000 0.892290
vt 0.742866 0.750000
vt 0.852977 0.750000
vt 0.852977 0.500000
vt 0.742866 0.500000
vt 1.000000 0.631007
vt 1.000000 0.377484
vt 1.000000 0.892290
vt 1.000000 0.638766
vt 0.507887 0.373240
vt 0.604030 0.270430
vt 0.572525 0.981963
vt 0.411890 0.884051
vt 0.606822 0.380754
vt 0.238146 0.750000
vt 0.375000 0.886854
vt 0.604994 0.979497
vt 0.510825 0.876537
vt 0.852977 0.591249
vt 1.000000 0.999167
vt 1.000000 0.999167
vt 0.000000 0.999167
vt 0.000000 0.999167
vt 1.000000 0.995999
vt 1.000000 0.995999
vt 0.000000 0.995999
s 0
f 143/53/28 214/54/28 213/55/28 212/56/28
f 143/53/29 214/54/29 218/57/29 209/58/29 208/58/29 215/53/29
f 144/53/30 146/59/30 147/60/30 145/58/30
f 146/59/31 144/53/31 149/53/31 217/61/31 215/62/31 208/63/31 210/64/31 148/59/31
f 147/60/32 146/59/32 148/59/32 206/65/32 204/66/32 200/67/32 202/68/32 198/69/32 196/70/32 192/71/32 194/72/32 151/60/32
f 144/53/33 145/58/33 150/58/33 221/73/33 219/74/33 223/75/33 225/76/33 149/53/33
f 145/58/34 166/77/34 164/78/34 159/79/34 151/60/34 150/58/34
f 152/53/29 153/58/29 155/60/29 154/59/29
f 154/59/34 156/59/34 211/80/34 209/81/34 218/53/34 152/53/34
f 155/60/33 158/60/33 195/82/33 193/83/33 197/84/33 199/85/33 203/86/33 201/87/33 205/88/33 207/89/33 156/59/33 154/59/33
f 152/53/32 218/53/32 214/90/32 213/91/32 226/92/32 224/92/32 220/93/32 222/93/32 157/58/32 153/58/32
f 153/58/31 157/58/31 165/94/31 167/94/31 163/95/31 161/96/31 176/97/31 179/98/31 173/99/31 171/99/31 189/100/31 191/101/31 184/102/31 182/103/31 186/104/31 158/60/31 155/60/31
f 148/59/29 210/64/29 211/80/29 156/59/29
f 149/53/29 225/76/29 226/92/29 213/91/29 212/105/29 216/53/29
f 150/58/29 151/60/29 158/60/29 157/58/29
f 151/60/29 194/72/29 195/82/29 158/60/29
f 163/106/33 162/107/33 159/108/33 160/109/33 161/110/33
f 158/60/31 186/104/31 187/111/31 189/100/31 171/99/31 170/99/31 175/112/31 176/97/31 161/96/31 160/95/31 165/94/31 157/58/31
f 167/113/29 166/114/29 162/115/29 163/116/29
f 166/117/32 167/118/32 165/119/32 164/120/32
f 151/60/34 159/79/34 162/79/34 177/121/34 174/121/34 168/122/34 169/123/34 188/124/34 185/125/34 181/126/34 180/127/34
f 164/128/30 165/129/30 160/130/30 159/131/30
f 169/123/34 172/132/34 178/133/34 177/121/34 162/79/34 166/77/34 145/58/34 147/60/34 151/60/34 180/127/34 183/134/34 190/135/34 188/124/34
f 173/106/33 172/107/33 169/136/33 168/108/33 170/109/33 171/137/33
f 179/113/29 178/114/29 172/115/29 173/116/29
f 178/117/32 179/118/32 176/138/32 175/119/32 174/120/32 177/139/32
f 174/128/30 175/129/30 170/130/30 168/131/30
f 184/106/33 183/107/33 180/140/33 181/108/33 182/109/33
f 191/113/29 190/141/29 183/115/29 184/116/29
f 190/142/32 191/118/32 189/143/32 187/119/32 185/120/32 188/144/32
f 185/128/30 187/129/30 186/145/30 182/130/30 181/131/30
f 193/58/31 195/146/31 194/147/31 192/58/31
f 199/85/29 198/69/29 202/68/29 203/86/29
f 197/53/29 193/58/29 192/58/29 196/53/29
f 196/53/34 198/148/34 199/149/34 197/53/34
f 201/58/31 203/146/31 202/147/31 200/58/31
f 207/89/29 206/65/29 148/59/29 156/59/29
f 205/53/29 201/58/29 200/58/29 204/53/29
f 204/53/34 206/148/34 207/149/34 205/53/34
f 216/53/29 217/61/29 149/53/29
f 209/58/32 208/58/32 210/150/32 211/151/32
f 215/53/32 217/152/32 216/152/32 212/56/32 143/53/32
f 222/93/29 221/73/29 150/58/29 157/58/29
f 222/93/32 220/93/32 224/92/32 226/92/32
f 219/74/33 221/73/33 225/76/33 223/75/33
o door.005
v 23.399151 1.137338 2.005526
v 22.011435 1.137338 2.005526
v 23.399149 4.108454 2.005526
v 22.011433 4.108454 2.005526
v 23.399149 4.108454 2.405525
v 23.399151 1.137338 2.405525
v 22.011435 1.137338 2.405525
v 22.011433 4.108454 2.405525
v 20.623718 1.137338 2.005526
v 19.236002 1.137338 2.005526
v 20.623718 4.108454 2.005526
v 19.236000 4.108454 2.005526
v 20.623718 4.108454 2.405525
v 20.623718 1.137338 2.405525
v 19.236002 1.137338 2.405525
v 19.236002 4.108454 2.405525
vn -0.0000 -0.0000 -1.0000
vn -0.0000 -0.0000 1.0000
vn -1.0000 -0.0000 -0.0000
vn 1.0000 -0.0000 -0.0000
vn -0.0000 1.0000 -0.0000
vn -0.0000 -1.0000 -0.0000
vt 0.000000 0.000000
vt 1.000000 0.000000
vt 1.000000 1.000000
vt 0.000000 1.000000
s 0
f 227/153/35 228/154/35 230/155/35 229/156/35
f 232/153/36 231/156/36 234/155/36 233/154/36
f 228/154/37 233/154/37 234/155/37 230/155/37
f 229/156/38 231/156/38 232/153/38 227/153/38
f 230/155/39 234/155/39 231/156/39 229/156/39
f 227/153/40 232/153/40 233/154/40 228/154/40
f 235/153/35 236/154/35 238/155/35 237/156/35
f 240/153/36 239/156/36 242/155/36 241/154/36
f 236/154/37 241/154/37 242/155/37 238/155/37
f 237/156/38 239/156/38 240/153/38 235/153/38
f 238/155/39 242/155/39 239/156/39 237/156/39
f 235/153/40 240/153/40 241/154/40 236/154/40
o door.006
v 17.702820 1.137338 3.896011
v 17.702822 1.137338 5.283728
v 17.702820 4.108454 3.896012
v 17.702822 4.108454 5.283728
v 18.102819 4.108454 3.896011
v 18.102819 1.137338 3.896011
v 18.102821 1.137338 5.283728
v 18.102821 4.108454 5.283728
v 17.702822 1.137338 6.671444
v 17.702822 1.137338 8.059160
v 17.702822 4.108454 6.671444
v 17.702822 4.108454 8.059160
v 18.102821 4.108454 6.671444
v 18.102821 1.137338 6.671443
v 18.102821 1.137338 8.059160
v 18.102821 4.108454 8.059160
vn -1.0000 -0.0000 -0.0000
vn 1.0000 -0.0000 -0.0000
vn -0.0000 -0.0000 1.0000
vn -0.0000 -0.0000 -1.0000
vn -0.0000 1.0000 -0.0000
vn -0.0000 -1.0000 -0.0000
vt 0.000000 0.000000
vt 1.000000 0.000000
vt 1.000000 1.000000
vt 0.000000 1.000000
s 0
f 243/157/41 244/158/41 246/159/41 245/160/41
f 248/157/42 247/160/42 250/159/42 249/158/42
f 244/158/43 249/158/43 250/159/43 246/159/43
f 245/160/44 247/160/44 248/157/44 243/157/44
f 246/159/45 250/159/45 247/160/45 245/160/45
f 243/157/46 248/157/46 249/158/46 244/158/46
f 251/157/41 252/158/41 254/159/41 253/160/41
f 256/157/42 255/160/42 258/159/42 257/158/42
f 252/158/43 257/158/43 258/159/43 254/159/43
f 253/160/44 255/160/44 256/157/44 251/157/44
f 254/159/45 258/159/45 255/160/45 253/160/45
f 251/157/46 256/157/46 257/158/46 252/158/46
o Plane.006
v 18.062817 5.392859 12.878990
v 32.884842 5.392859 12.878990
v 18.062817 5.392859 2.365523
v 32.884842 5.392859 2.365523
v 24.922571 5.392859 2.365523
v 28.117128 5.392859 2.365523
v 24.922571 5.392859 2.165518
v 28.117125 5.392859 2.165515
v 32.353214 5.392859 2.365523
v 28.806852 5.392859 2.365523
v 28.806854 5.392859 2.165523
v 32.353214 5.392859 2.165523
v 26.100330 5.392859 12.878990
v 29.294888 5.392859 12.878990
v 29.294884 5.392859 13.078993
v 26.100330 5.392859 13.078995
v 18.062817 5.392859 9.686876
v 17.862820 5.392859 9.686874
v 17.862823 5.392859 12.878992
v 18.062817 5.388858 12.878990
v 32.884842 5.388858 12.878990
v 18.062817 5.388858 2.365523
v 32.884842 5.388858 2.365523
v 24.922571 5.388858 2.365523
v 28.117128 5.388858 2.365523
v 24.922571 5.388858 2.165518
v 28.117125 5.388858 2.165515
v 32.353214 5.388858 2.365523
v 28.806852 5.388858 2.365523
v 28.806854 5.388858 2.165523
v 32.353214 5.388858 2.165523
v 26.100330 5.388858 12.878990
v 29.294888 5.388858 12.878990
v 29.294884 5.388858 13.078993
v 26.100330 5.388858 13.078995
v 18.062817 5.388858 9.686876
v 17.862820 5.388858 9.686874
v 17.862823 5.388858 12.878992
vn -0.0000 1.0000 -0.0000
vn -0.0000 -1.0000 -0.0000
vn -0.0000 -0.0000 1.0000
vn 1.0000 -0.0000 -0.0000
vn -0.0000 -0.0000 -1.0000
vn -1.0000 -0.0000 -0.0000
vt 0.000000 0.000000
vt 0.500000 0.000000
vt 0.562500 0.000000
vt 0.625000 0.000000
vt 0.750000 0.000000
vt 1.000000 0.000000
vt 1.000000 1.000000
vt 0.875000 1.000000
vt 0.859375 1.000000
vt 0.843750 1.000000
vt 0.812500 1.000000
vt 0.750000 1.000000
vt 0.687500 1.000000
vt 0.625000 1.000000
vt 0.500000 1.000000
vt 0.000000 1.000000
vt 0.000000 0.500000
vt 0.000000 0.250000
vt 0.000000 0.125000
s 0
f 259/161/47 271/162/47 274/163/47 273/164/47 272/165/47 260/166/47 262/167/47 267/168/47 270/169/47 269/170/47 268/171/47 264/172/47 266/173/47 265/174/47 263/175/47 261/176/47 275/177/47 276/178/47 277/179/47
f 278/161/48 296/179/48 295/178/48 294/177/48 280/176/48 282/175/48 284/174/48 285/173/48 283/172/48 287/171/48 288/170/48 289/169/48 286/168/48 281/167/48 279/166/48 291/165/48 292/164/48 293/163/48 290/162/48
f 259/161/49 277/179/49 296/179/49 278/161/49
f 260/166/49 272/165/49 291/165/49 279/166/49
f 262/167/50 260/166/50 279/166/50 281/167/50
f 261/176/51 263/175/51 282/175/51 280/176/51
f 263/175/52 265/174/52 284/174/52 282/175/52
f 264/172/51 268/171/51 287/171/51 283/172/51
f 265/174/51 266/173/51 285/173/51 284/174/51
f 266/173/50 264/172/50 283/172/50 285/173/50
f 267/168/51 262/167/51 281/167/51 286/168/51
f 268/171/52 269/170/52 288/170/52 287/171/52
f 269/170/51 270/169/51 289/169/51 288/170/51
f 270/169/50 267/168/50 286/168/50 289/169/50
f 271/162/49 259/161/49 278/161/49 290/162/49
f 272/165/50 273/164/50 292/164/50 291/165/50
f 273/164/49 274/163/49 293/163/49 292/164/49
f 274/163/52 271/162/52 290/162/52 293/163/52
f 275/177/52 261/176/52 280/176/52 294/177/52
f 276/178/51 275/177/51 294/177/51 295/178/51
f 277/179/52 276/178/52 295/178/52 296/179/52
o door_elevator.002
v 25.863131 1.111121 13.238996
v 27.250845 1.111121 13.238996
v 25.863131 4.082237 13.238996
v 27.250845 4.082237 13.238996
v 25.863131 4.082237 12.838996
v 25.863131 1.111121 12.838996
v 27.250845 1.111121 12.838996
v 27.250845 4.082237 12.838996
v 22.393850 1.111121 13.238996
v 23.781563 1.111121 13.238996
v 22.393850 4.082237 13.238996
v 23.781563 4.082237 13.238996
v 22.393850 4.082237 12.838996
v 22.393850 1.111121 12.838996
v 23.781563 1.111121 12.838996
v 23.781563 4.082237 12.838996
vn -0.0000 -0.0000 1.0000
vn -0.0000 -0.0000 -1.0000
vn 1.0000 -0.0000 -0.0000
vn -1.0000 -0.0000 -0.0000
vn -0.0000 1.0000 -0.0000
vn -0.0000 -1.0000 -0.0000
vt 0.000000 0.000000
vt 1.000000 0.000000
vt 1.000000 1.000000
vt 0.000000 1.000000
s 0
f 297/180/53 298/181/53 300/182/53 299/183/53
f 302/180/54 301/183/54 304/182/54 303/181/54
f 298/181/55 303/181/55 304/182/55 300/182/55
f 299/183/56 301/183/56 302/180/56 297/180/56
f 300/182/57 304/182/57 301/183/57 299/183/57
f 297/180/58 302/180/58 303/181/58 298/181/58
f 305/180/53 306/181/53 308/182/53 307/183/53
f 310/180/54 309/183/54 312/182/54 311/181/54
f 306/181/55 311/181/55 312/182/55 308/182/55
f 307/183/56 309/183/56 310/180/56 305/180/56
f 308/182/57 312/182/57 309/183/57 307/183/57
f 305/180/58 310/180/58 311/181/58 306/181/58
