<svg xmlns="http://www.w3.org/2000/svg" version="1.1" xmlns:xlink="http://www.w3.org/1999/xlink" xmlns:svgjs="http://svgjs.dev/svgjs" width="1000" height="1125" viewBox="0 0 1000 1125"><g transform="matrix(1,0,0,1,0.00011562499986439434,0)"><svg viewBox="0 0 320 360" data-background-color="#ffffff" preserveAspectRatio="xMidYMid meet" height="1125" width="1000" xmlns="http://www.w3.org/2000/svg" xmlns:xlink="http://www.w3.org/1999/xlink"><g id="tight-bounds" transform="matrix(1,0,0,1,-0.0000369999999634274,0)"><svg viewBox="0 0 320 360" height="360" width="320"><g><svg></svg></g><g><svg viewBox="0 0 320 360" height="360" width="320"><g><path transform="translate(-29.57346,-9.38389) scale(3.79147,3.79147)" d="M50 13.6c19.1 0 34.8 14.8 36.3 33.5h5.9c-0.3-4.7-1.4-9.2-3.2-13.5-2.1-5-5.2-9.6-9.1-13.4-3.9-3.9-8.4-6.9-13.4-9.1-5.3-2.2-10.8-3.4-16.5-3.4-5.7 0-11.2 1.1-16.5 3.3-5 2.1-9.6 5.2-13.4 9.1-3.9 3.9-6.9 8.4-9.1 13.4-1.8 4.3-2.9 8.9-3.2 13.5h5.9c1.5-18.6 17.2-33.4 36.3-33.4zM50 86.4c-19.1 0-34.8-14.8-36.3-33.5h-5.9c0.3 4.7 1.4 9.2 3.2 13.5 2.1 5 5.2 9.6 9.1 13.4 3.9 3.9 8.4 6.9 13.4 9.1 5.2 2.2 10.7 3.3 16.5 3.3 5.8 0 11.2-1.1 16.5-3.3 5-2.1 9.6-5.2 13.4-9.1 3.9-3.9 6.9-8.4 9.1-13.4 1.8-4.3 2.9-8.9 3.2-13.5h-5.9c-1.5 18.7-17.2 33.5-36.3 33.5z" fill="#264768" fill-rule="nonzero" stroke="none" stroke-width="1" stroke-linecap="butt" stroke-linejoin="miter" stroke-miterlimit="10" stroke-dasharray="" stroke-dashoffset="0" font-family="none" font-weight="none" font-size="none" text-anchor="none" style="mix-blend-mode: normal" data-fill-palette-color="tertiary"></path></g><g transform="matrix(1,0,0,1,56,124.67570372287796)"><svg viewBox="0 0 208 110.64859255424408" height="110.64859255424408" width="208"><g><svg viewBox="0 0 208 110.64859255424408" height="110.64859255424408" width="208"><g><svg viewBox="0 0 483.28047167689823 257.088" height="110.64859255424408" width="208"><g transform="matrix(1,0,0,1,275.28047167689823,57.10466453850297)"><svg viewBox="0 0 208 142.87867092299408" height="142.87867092299408" width="208"><g id="textblocktransform"><svg viewBox="0 0 208 142.87867092299408" height="142.87867092299408" width="208" id="textblock"><g><svg viewBox="0 0 208 77.06192784060312" height="77.06192784060312" width="208"><g transform="matrix(1,0,0,1,0,0)"><svg width="208" viewBox="1.15 -34.4 92.85 34.4" height="77.06192784060312" data-palette-color="#264768"><path d="M34.75-25.6L23.5-25.6 23.5 0 12.45 0 12.45-25.6 1.15-25.6 1.15-34.4 34.75-34.4 34.75-25.6ZM51.35 0L40.3 0 40.3-34.4 51.35-34.4 51.35 0ZM94 0L82.3 0 80.85-4.85 68.8-4.85 67.35 0 56.05 0 68.6-34.4 81.45-34.4 94 0ZM74.75-24.8L71.1-12.55 78.55-12.55 74.95-24.8 74.75-24.8Z" opacity="1" transform="matrix(1,0,0,1,0,0)" fill="#264768" class="wordmark-text-0" data-fill-palette-color="primary" id="text-0"></path></svg></g></svg></g><g transform="matrix(1,0,0,1,0,95.25439951750134)"><svg viewBox="0 0 208 47.624271405492735" height="47.624271405492735" width="208"><g transform="matrix(1,0,0,1,0,0)"><svg width="208" viewBox="6.1 -35.25 155.05 35.5" height="47.624271405492735" data-palette-color="#264768"><path d="M26.9-18.05Q30.65-17.35 32.63-15.1 34.6-12.85 34.6-9.25L34.6-9.25Q34.6-4.8 31.35-2.4 28.1 0 21.7 0L21.7 0 6.1 0 6.1-35 20.7-35Q26.4-35 29.58-32.68 32.75-30.35 32.75-26.05L32.75-26.05Q32.75-23.05 31.18-21 29.6-18.95 26.9-18.05L26.9-18.05ZM20.6-32.8L8.65-32.8 8.65-18.85 20.6-18.85Q25.2-18.85 27.68-20.63 30.15-22.4 30.15-25.85L30.15-25.85Q30.15-29.25 27.68-31.03 25.2-32.8 20.6-32.8L20.6-32.8ZM21.7-2.2Q26.8-2.2 29.43-3.98 32.05-5.75 32.05-9.45L32.05-9.45Q32.05-13.15 29.43-14.9 26.8-16.65 21.7-16.65L21.7-16.65 8.65-16.65 8.65-2.2 21.7-2.2ZM63.67 0.25Q59.82 0.25 56.34-1.07 52.87-2.4 50.92-4.5L50.92-4.5 52.07-6.4Q53.92-4.45 57.04-3.23 60.17-2 63.62-2L63.62-2Q68.62-2 71.17-3.9 73.72-5.8 73.72-8.85L73.72-8.85Q73.72-11.2 72.37-12.6 71.02-14 69.02-14.75 67.02-15.5 63.62-16.3L63.62-16.3Q59.77-17.25 57.44-18.15 55.12-19.05 53.49-20.93 51.87-22.8 51.87-25.95L51.87-25.95Q51.87-28.5 53.22-30.63 54.57-32.75 57.34-34 60.12-35.25 64.27-35.25L64.27-35.25Q67.17-35.25 69.97-34.4 72.77-33.55 74.82-32.1L74.82-32.1 73.87-30.05Q71.77-31.5 69.24-32.25 66.72-33 64.27-33L64.27-33Q59.42-33 56.92-31.05 54.42-29.1 54.42-26L54.42-26Q54.42-23.65 55.77-22.25 57.12-20.85 59.12-20.1 61.12-19.35 64.57-18.5L64.57-18.5Q68.42-17.55 70.72-16.65 73.02-15.75 74.64-13.93 76.27-12.1 76.27-9L76.27-9Q76.27-6.45 74.89-4.35 73.52-2.25 70.67-1 67.82 0.25 63.67 0.25L63.67 0.25ZM101.88 0L101.88-32.7 89.28-32.7 89.28-35 117.03-35 117.03-32.7 104.43-32.7 104.43 0 101.88 0ZM147.1 0.25Q140.45 0.25 136.77-3.6 133.1-7.45 133.1-14.85L133.1-14.85 133.1-35 135.65-35 135.65-14.95Q135.65-8.5 138.6-5.3 141.55-2.1 147.15-2.1L147.15-2.1Q152.7-2.1 155.65-5.3 158.6-8.5 158.6-14.95L158.6-14.95 158.6-35 161.15-35 161.15-14.85Q161.15-7.45 157.45-3.6 153.75 0.25 147.1 0.25L147.1 0.25Z" opacity="1" transform="matrix(1,0,0,1,0,0)" fill="#264768" class="slogan-text-1" data-fill-palette-color="secondary" id="text-1"></path></svg></g></svg></g></svg></g></svg></g><g><svg viewBox="0 0 257.088 257.088" height="257.088" width="257.088"><g><svg xmlns:x="http://ns.adobe.com/Extensibility/1.0/" xmlns:i="http://ns.adobe.com/AdobeIllustrator/10.0/" xmlns:graph="http://ns.adobe.com/Graphs/1.0/" xmlns="http://www.w3.org/2000/svg" xmlns:xlink="http://www.w3.org/1999/xlink" version="1.1" x="0" y="0" viewBox="0 0 97.5 97.5" style="enable-background:new 0 0 100 100;" xml:space="preserve" height="257.088" width="257.088" class="icon-icon-0" data-fill-palette-color="accent" id="icon-0"><g i:extraneous="self" transform="matrix(1,0,0,1,0,0)" fill="#ff050b" data-fill-palette-color="accent"><g fill="#ff050b" data-fill-palette-color="accent"><polygon points="71.8,80.2 89.2,80.2 89.2,89.2 45.5,89.2 45.5,45.5 80.2,45.5 80.2,19.8 71.8,19.8 71.8,37.2 45.5,37.2      45.5,19.8 37.2,19.8 37.2,89.2 10.8,89.2 10.8,62.8 19.8,62.8 19.8,80.2 28.2,80.2 28.2,54.5 10.8,54.5 10.8,37.2 2.5,37.2      2.5,97.5 97.5,97.5 97.5,71.8 71.8,71.8    " fill="#ff050b" data-fill-palette-color="accent"></polygon><polygon points="2.5,2.5 2.5,28.2 19.8,28.2 19.8,45.5 28.2,45.5 28.2,19.8 10.8,19.8 10.8,10.8 54.5,10.8 54.5,28.2 62.8,28.2      62.8,10.8 89.2,10.8 89.2,54.5 54.5,54.5 54.5,80.2 62.8,80.2 62.8,62.8 97.5,62.8 97.5,2.5    " fill="#ff050b" data-fill-palette-color="accent"></polygon></g></g></svg></g></svg></g></svg></g></svg></g></svg></g></svg></g><defs></defs></svg><rect width="320" height="360" fill="none" stroke="none" visibility="hidden"></rect></g></svg></g></svg>