# Blender 3.6.1
# www.blender.org
mtllib hallway_2.mtl
o Plane.007
v 2.962019 0.212606 0.679534
v 2.962019 0.212606 -1.379815
v 2.208158 0.212606 0.679534
v 2.208158 0.212606 -1.379815
v 2.962019 1.341515 0.679534
v 2.962019 1.341515 -1.379815
v 2.208158 1.341515 0.679534
v 2.208158 1.341515 -1.379815
v 3.025852 0.177251 0.679534
v 3.025852 0.177251 -1.379815
v 2.148461 0.177251 0.679534
v 2.148461 0.177251 -1.379815
v 3.025852 1.341515 0.679534
v 3.025852 1.341515 -1.379815
v 2.148461 1.341515 0.679534
v 2.148461 1.341515 -1.379815
vn -0.0000 1.0000 -0.0000
vn 1.0000 -0.0000 -0.0000
vn -1.0000 -0.0000 -0.0000
vn -0.0000 -1.0000 -0.0000
vn -0.0000 -0.0000 1.0000
vn -0.0000 -0.0000 -1.0000
vt 1.130206 6.002912
vt 1.130206 0.115208
vt 3.398200 0.115208
vt 3.398201 6.002912
vt 5.217816 -5.772495
vt 5.217816 0.115208
vt 1.990255 0.115209
vt 1.990255 -5.772495
vt -1.439470 0.115208
vt -1.439469 6.002912
vt -4.667032 6.002912
vt -4.667032 0.115208
vt -1.439469 0.115209
vt 1.130207 0.115209
vt 1.130207 6.002912
vt -1.439469 6.002912
vt -1.338387 0.115208
vt -4.667031 0.115208
vt -4.667032 -5.772496
vt -1.338388 -5.772496
vt 1.990257 0.115209
vt -1.338387 0.115209
vt -1.338387 -5.772495
vt 1.990257 -5.772495
vt 3.541151 3.342771
vt 5.809146 3.342771
vt 5.967875 3.443852
vt 3.398201 3.443852
vt 3.556933 6.671415
vt 5.824926 6.671415
vt 5.967876 6.772496
vt 3.398201 6.772496
vt 5.519498 -5.772496
vt 5.519499 0.115208
vt 5.376548 0.115208
vt 5.376548 -5.772496
vt 5.217817 0.115208
vt 5.217816 -5.772496
vt 5.809146 0.115208
vt 5.967875 0.115208
vt 3.556933 3.443853
vt 3.398201 3.443853
vt 5.824926 3.443853
vt 5.967876 3.443853
vt 3.541151 0.115208
vt 3.398201 0.115208
s 0
usemtl Material.011
f 1/1/1 2/2/1 4/3/1 3/4/1
f 3/5/2 4/6/2 8/7/2 7/8/2
f 2/9/3 1/10/3 5/11/3 6/12/3
f 9/13/4 11/14/4 12/15/4 10/16/4
f 11/17/3 15/18/3 16/19/3 12/20/3
f 10/21/2 14/22/2 13/23/2 9/24/2
f 1/25/5 3/26/5 11/27/5 9/28/5
f 4/29/6 2/30/6 10/31/6 12/32/6
f 6/33/1 5/34/1 13/35/1 14/36/1
f 7/37/1 8/38/1 16/36/1 15/35/1
f 3/26/5 7/39/5 15/40/5 11/27/5
f 8/41/6 4/29/6 12/32/6 16/42/6
f 2/30/6 6/43/6 14/44/6 10/31/6
f 5/45/5 1/25/5 9/28/5 13/46/5
