# Blender 3.6.1
# www.blender.org
mtllib office.mtl
o column_1.001
v 3.967163 1.133922 1.428995
v 5.191408 1.133922 1.428995
v 3.967163 1.133922 -0.664342
v 5.191408 1.133922 -0.664342
v 3.967163 5.388861 -0.664342
v 3.967163 5.388861 1.428995
v 5.191408 5.388861 1.428995
v 5.191408 5.388861 -0.664342
vn 1.0000 -0.0000 -0.0000
vn -1.0000 -0.0000 -0.0000
vn -0.0000 -0.0000 -1.0000
vn -0.0000 -0.0000 1.0000
vt 0.021058 2.654758
vt -1.007484 2.654758
vt -1.007484 -1.654758
vt 0.021058 -1.654758
vt 1.049601 2.654758
vt 1.049601 -1.654758
vt 2.078144 2.654758
vt 2.078144 -1.654758
vt 3.106687 2.654758
vt 3.106687 -1.654758
s 0
usemtl 
f 2/1/1 4/2/1 8/3/1 7/4/1
f 3/5/2 1/1/2 6/4/2 5/6/2
f 4/7/3 3/5/3 5/6/3 8/8/3
f 1/9/4 2/7/4 7/8/4 6/10/4
o base_lampo.001
v 1.551272 5.366144 -2.093253
v 2.584016 5.366144 -2.093253
v 1.551272 5.366144 -3.125998
v 2.584016 5.366144 -3.125998
v 1.551272 5.351772 -3.125998
v 1.551272 5.351772 -2.093253
v 2.584016 5.351772 -2.093253
v 2.584016 5.351772 -3.125998
v 1.551272 5.366144 1.521349
v 2.584016 5.366144 1.521349
v 1.551272 5.366144 0.488605
v 2.584016 5.366144 0.488605
v 1.551272 5.351772 0.488605
v 1.551272 5.351772 1.521349
v 2.584016 5.351772 1.521349
v 2.584016 5.351772 0.488605
v 1.551272 5.366144 5.135953
v 2.584016 5.366144 5.135953
v 1.551272 5.366144 4.103209
v 2.584016 5.366144 4.103209
v 1.551272 5.351772 4.103209
v 1.551272 5.351772 5.135953
v 2.584016 5.351772 5.135953
v 2.584016 5.351772 4.103209
v 1.551272 5.366144 8.750558
v 2.584016 5.366144 8.750558
v 1.551272 5.366144 7.717814
v 2.584016 5.366144 7.717814
v 1.551272 5.351772 7.717814
v 1.551272 5.351772 8.750558
v 2.584016 5.351772 8.750558
v 2.584016 5.351772 7.717814
v 1.551272 5.366144 12.365162
v 2.584016 5.366144 12.365162
v 1.551272 5.366144 11.332418
v 2.584016 5.366144 11.332418
v 1.551272 5.351772 11.332418
v 1.551272 5.351772 12.365162
v 2.584016 5.351772 12.365162
v 2.584016 5.351772 11.332418
v 1.551272 5.366144 15.979765
v 2.584016 5.366144 15.979765
v 1.551272 5.366144 14.947021
v 2.584016 5.366144 14.947021
v 1.551272 5.351772 14.947021
v 1.551272 5.351772 15.979765
v 2.584016 5.351772 15.979765
v 2.584016 5.351772 14.947021
v 1.551272 5.366144 19.594368
v 2.584016 5.366144 19.594368
v 1.551272 5.366144 18.561626
v 2.584016 5.366144 18.561626
v 1.551272 5.351772 18.561626
v 1.551272 5.351772 19.594368
v 2.584016 5.351772 19.594368
v 2.584016 5.351772 18.561626
v -2.063332 5.366144 -2.093253
v -1.030588 5.366144 -2.093253
v -2.063332 5.366144 -3.125998
v -1.030588 5.366144 -3.125998
v -2.063332 5.351772 -3.125998
v -2.063332 5.351772 -2.093253
v -1.030588 5.351772 -2.093253
v -1.030588 5.351772 -3.125998
v -2.063332 5.366144 1.521349
v -1.030588 5.366144 1.521349
v -2.063332 5.366144 0.488605
v -1.030588 5.366144 0.488605
v -2.063332 5.351772 0.488605
v -2.063332 5.351772 1.521349
v -1.030588 5.351772 1.521349
v -1.030588 5.351772 0.488605
v -2.063332 5.366144 5.135953
v -1.030588 5.366144 5.135953
v -2.063332 5.366144 4.103209
v -1.030588 5.366144 4.103209
v -2.063332 5.351772 4.103209
v -2.063332 5.351772 5.135953
v -1.030588 5.351772 5.135953
v -1.030588 5.351772 4.103209
v -2.063332 5.366144 8.750558
v -1.030588 5.366144 8.750558
v -2.063332 5.366144 7.717814
v -1.030588 5.366144 7.717814
v -2.063332 5.351772 7.717814
v -2.063332 5.351772 8.750558
v -1.030588 5.351772 8.750558
v -1.030588 5.351772 7.717814
v -2.063332 5.366144 12.365162
v -1.030588 5.366144 12.365162
v -2.063332 5.366144 11.332418
v -1.030588 5.366144 11.332418
v -2.063332 5.351772 11.332418
v -2.063332 5.351772 12.365162
v -1.030588 5.351772 12.365162
v -1.030588 5.351772 11.332418
v -2.063332 5.366144 15.979765
v -1.030588 5.366144 15.979765
v -2.063332 5.366144 14.947021
v -1.030588 5.366144 14.947021
v -2.063332 5.351772 14.947021
v -2.063332 5.351772 15.979765
v -1.030588 5.351772 15.979765
v -1.030588 5.351772 14.947021
v -2.063332 5.366144 19.594368
v -1.030588 5.366144 19.594368
v -2.063332 5.366144 18.561626
v -1.030588 5.366144 18.561626
v -2.063332 5.351772 18.561626
v -2.063332 5.351772 19.594368
v -1.030588 5.351772 19.594368
v -1.030588 5.351772 18.561626
vn -0.0000 1.0000 -0.0000
vn -0.0000 -1.0000 -0.0000
vn 1.0000 -0.0000 -0.0000
vn -1.0000 -0.0000 -0.0000
vn -0.0000 -0.0000 -1.0000
vn -0.0000 -0.0000 1.0000
vt 0.000000 0.000000
vt 1.000000 0.000000
vt 1.000000 1.000000
vt 0.000000 1.000000
s 0
usemtl Material
f 9/11/5 10/12/5 12/13/5 11/14/5
f 14/11/6 13/14/6 16/13/6 15/12/6
f 10/12/7 15/12/7 16/13/7 12/13/7
f 11/14/8 13/14/8 14/11/8 9/11/8
f 12/13/9 16/13/9 13/14/9 11/14/9
f 9/11/10 14/11/10 15/12/10 10/12/10
f 17/11/5 18/12/5 20/13/5 19/14/5
f 22/11/6 21/14/6 24/13/6 23/12/6
f 18/12/7 23/12/7 24/13/7 20/13/7
f 19/14/8 21/14/8 22/11/8 17/11/8
f 20/13/9 24/13/9 21/14/9 19/14/9
f 17/11/10 22/11/10 23/12/10 18/12/10
f 25/11/5 26/12/5 28/13/5 27/14/5
f 30/11/6 29/14/6 32/13/6 31/12/6
f 26/12/7 31/12/7 32/13/7 28/13/7
f 27/14/8 29/14/8 30/11/8 25/11/8
f 28/13/9 32/13/9 29/14/9 27/14/9
f 25/11/10 30/11/10 31/12/10 26/12/10
f 33/11/5 34/12/5 36/13/5 35/14/5
f 38/11/6 37/14/6 40/13/6 39/12/6
f 34/12/7 39/12/7 40/13/7 36/13/7
f 35/14/8 37/14/8 38/11/8 33/11/8
f 36/13/9 40/13/9 37/14/9 35/14/9
f 33/11/10 38/11/10 39/12/10 34/12/10
f 41/11/5 42/12/5 44/13/5 43/14/5
f 46/11/6 45/14/6 48/13/6 47/12/6
f 42/12/7 47/12/7 48/13/7 44/13/7
f 43/14/8 45/14/8 46/11/8 41/11/8
f 44/13/9 48/13/9 45/14/9 43/14/9
f 41/11/10 46/11/10 47/12/10 42/12/10
f 49/11/5 50/12/5 52/13/5 51/14/5
f 54/11/6 53/14/6 56/13/6 55/12/6
f 50/12/7 55/12/7 56/13/7 52/13/7
f 51/14/8 53/14/8 54/11/8 49/11/8
f 52/13/9 56/13/9 53/14/9 51/14/9
f 49/11/10 54/11/10 55/12/10 50/12/10
f 57/11/5 58/12/5 60/13/5 59/14/5
f 62/11/6 61/14/6 64/13/6 63/12/6
f 58/12/7 63/12/7 64/13/7 60/13/7
f 59/14/8 61/14/8 62/11/8 57/11/8
f 60/13/9 64/13/9 61/14/9 59/14/9
f 57/11/10 62/11/10 63/12/10 58/12/10
f 65/11/5 66/12/5 68/13/5 67/14/5
f 70/11/6 69/14/6 72/13/6 71/12/6
f 66/12/7 71/12/7 72/13/7 68/13/7
f 67/14/8 69/14/8 70/11/8 65/11/8
f 68/13/9 72/13/9 69/14/9 67/14/9
f 65/11/10 70/11/10 71/12/10 66/12/10
f 73/11/5 74/12/5 76/13/5 75/14/5
f 78/11/6 77/14/6 80/13/6 79/12/6
f 74/12/7 79/12/7 80/13/7 76/13/7
f 75/14/8 77/14/8 78/11/8 73/11/8
f 76/13/9 80/13/9 77/14/9 75/14/9
f 73/11/10 78/11/10 79/12/10 74/12/10
f 81/11/5 82/12/5 84/13/5 83/14/5
f 86/11/6 85/14/6 88/13/6 87/12/6
f 82/12/7 87/12/7 88/13/7 84/13/7
f 83/14/8 85/14/8 86/11/8 81/11/8
f 84/13/9 88/13/9 85/14/9 83/14/9
f 81/11/10 86/11/10 87/12/10 82/12/10
f 89/11/5 90/12/5 92/13/5 91/14/5
f 94/11/6 93/14/6 96/13/6 95/12/6
f 90/12/7 95/12/7 96/13/7 92/13/7
f 91/14/8 93/14/8 94/11/8 89/11/8
f 92/13/9 96/13/9 93/14/9 91/14/9
f 89/11/10 94/11/10 95/12/10 90/12/10
f 97/11/5 98/12/5 100/13/5 99/14/5
f 102/11/6 101/14/6 104/13/6 103/12/6
f 98/12/7 103/12/7 104/13/7 100/13/7
f 99/14/8 101/14/8 102/11/8 97/11/8
f 100/13/9 104/13/9 101/14/9 99/14/9
f 97/11/10 102/11/10 103/12/10 98/12/10
f 105/11/5 106/12/5 108/13/5 107/14/5
f 110/11/6 109/14/6 112/13/6 111/12/6
f 106/12/7 111/12/7 112/13/7 108/13/7
f 107/14/8 109/14/8 110/11/8 105/11/8
f 108/13/9 112/13/9 109/14/9 107/14/9
f 105/11/10 110/11/10 111/12/10 106/12/10
f 113/11/5 114/12/5 116/13/5 115/14/5
f 118/11/6 117/14/6 120/13/6 119/12/6
f 114/12/7 119/12/7 120/13/7 116/13/7
f 115/14/8 117/14/8 118/11/8 113/11/8
f 116/13/9 120/13/9 117/14/9 115/14/9
f 113/11/10 118/11/10 119/12/10 114/12/10
o column_6/8.001
v -4.254474 1.133424 0.187308
v -4.254474 1.133424 -0.875943
v -5.317725 1.133424 -0.875942
v -4.254474 5.388363 0.187308
v -4.254474 5.388363 -0.875943
v -5.317725 5.388363 -0.875942
v -4.786099 1.133424 0.187308
v -5.317725 1.133424 -0.344317
v -4.786099 5.388363 0.187308
v -5.317725 5.388363 -0.344317
vn -0.0000 -0.0000 -1.0000
vn -0.0000 -0.0000 1.0000
vn 1.0000 -0.0000 -0.0000
vn -1.0000 -0.0000 -0.0000
vt 0.021058 2.654758
vt -1.007484 2.654758
vt -1.007484 -1.654758
vt 0.021058 -1.654758
vt 0.535330 2.654758
vt 0.535330 -1.654758
vt 3.106687 2.654758
vt 2.078144 2.654758
vt 2.078144 -1.654758
vt 3.106687 -1.654758
vt 1.563873 2.654758
vt 1.563873 -1.654758
s 0
usemtl 
f 122/15/11 123/16/11 126/17/11 125/18/11
f 127/19/12 121/15/12 124/18/12 129/20/12
f 121/21/13 122/22/13 125/23/13 124/24/13
f 123/22/14 128/25/14 130/26/14 126/23/14
o column_half.001
v -4.254474 1.133464 8.959343
v -4.254474 1.133464 10.022593
v -4.254474 5.388401 10.022593
v -4.254474 5.388401 8.959343
v -4.786099 1.133464 8.959344
v -4.786099 1.133464 10.022594
v -4.786099 5.388401 8.959344
v -4.786099 5.388401 10.022594
vn 1.0000 -0.0000 -0.0000
vn -0.0000 -0.0000 1.0000
vn -0.0000 -0.0000 -1.0000
vt 1.049601 2.654758
vt 0.021058 2.654758
vt 0.021058 -1.654758
vt 1.049601 -1.654758
vt 1.563873 2.654758
vt 1.563873 -1.654758
vt 3.106687 2.654758
vt 2.592416 2.654758
vt 2.592416 -1.654758
vt 3.106687 -1.654758
s 0
usemtl 
f 132/27/15 131/28/15 134/29/15 133/30/15
f 136/31/16 132/27/16 133/30/16 138/32/16
f 131/33/17 135/34/17 137/35/17 134/36/17
o column_half.002
v -4.254474 1.133464 13.206771
v -4.254474 1.133464 14.270021
v -4.254474 5.388401 14.270021
v -4.254474 5.388401 13.206771
v -4.786099 1.133464 13.206772
v -4.786099 1.133464 14.270022
v -4.786099 5.388401 13.206772
v -4.786099 5.388401 14.270022
vn 1.0000 -0.0000 -0.0000
vn -0.0000 -0.0000 1.0000
vn -0.0000 -0.0000 -1.0000
vt 1.049601 2.654758
vt 0.021058 2.654758
vt 0.021058 -1.654758
vt 1.049601 -1.654758
vt 1.563873 2.654758
vt 1.563873 -1.654758
vt 3.106687 2.654758
vt 2.592416 2.654758
vt 2.592416 -1.654758
vt 3.106687 -1.654758
s 0
usemtl 
f 140/37/18 139/38/18 142/39/18 141/40/18
f 144/41/19 140/37/19 141/40/19 146/42/19
f 139/43/20 143/44/20 145/45/20 142/46/20
o door_elevator.011
v 2.396138 1.133464 -3.991367
v 1.008425 1.133464 -3.991367
v 2.396138 4.104580 -3.991368
v 1.008425 4.104580 -3.991367
v 2.396138 4.104580 -3.591368
v 2.396138 1.133464 -3.591367
v 1.008425 1.133464 -3.591367
v 1.008425 4.104580 -3.591367
vn -0.0000 -0.0000 -1.0000
vn -0.0000 -0.0000 1.0000
vn -1.0000 -0.0000 -0.0000
vn 1.0000 -0.0000 -0.0000
vn -0.0000 1.0000 -0.0000
vn -0.0000 -1.0000 -0.0000
vt 0.000000 0.000000
vt 1.000000 0.000000
vt 1.000000 1.000000
vt 0.000000 1.000000
s 0
f 147/47/21 148/48/21 150/49/21 149/50/21
f 152/47/22 151/50/22 154/49/22 153/48/22
f 148/48/23 153/48/23 154/49/23 150/49/23
f 149/50/24 151/50/24 152/47/24 147/47/24
f 150/49/25 154/49/25 151/50/25 149/50/25
f 147/47/26 152/47/26 153/48/26 148/48/26
o Plane.005
v 3.927164 1.134265 12.879005
v 3.927164 1.134265 9.684448
v 0.773472 1.133464 21.397099
v 3.968029 1.133464 21.397099
v 3.968029 5.388404 21.397099
v -4.575107 1.134119 -0.439190
v -4.575107 1.134119 -3.633747
v -4.786049 0.934265 21.686619
v 4.167163 0.934265 21.686619
v -4.786049 0.934265 -3.831370
v 5.390157 0.934284 -3.831380
v 4.167144 0.934229 -0.465140
v 5.391413 0.934210 -0.464219
v 4.167163 0.934265 15.207121
v -4.786049 5.388858 -3.831370
v -4.786049 5.388858 21.686619
v 4.167163 5.388858 21.686619
v 5.391441 5.388858 -0.464190
v 5.390148 5.388858 -3.831370
v 4.167163 5.388858 15.207121
v 4.167163 5.388858 -0.465122
v -4.586050 1.134265 21.486618
v 5.190224 1.134265 -3.631371
v 3.967163 1.134265 -0.665274
v 5.191364 1.134265 -0.664343
v 3.967163 1.134265 15.207121
v -4.586050 5.388858 21.486618
v 3.967163 5.388858 21.486618
v 5.191364 5.388858 -0.664343
v 5.190224 5.388858 -3.631371
v 3.967163 5.388858 15.207121
v 3.967163 5.388858 -0.665274
v 3.967163 1.137450 5.800161
v 4.167152 1.137450 5.800161
v 3.967163 5.388858 5.800161
v 4.167163 5.388858 5.800162
v 3.967163 1.137450 8.994718
v 4.167156 1.137450 8.994718
v 3.967163 5.388858 8.994718
v 4.167163 5.388858 8.994719
v 3.967163 1.141147 1.428990
v 4.167148 1.141147 1.428990
v 3.967163 5.388858 1.428990
v 4.167163 5.388858 1.428989
v 3.967163 1.141147 4.623548
v 4.167151 1.141147 4.623548
v 3.967163 5.388858 4.623547
v 4.167163 5.388858 4.623548
v 5.391319 3.406339 -0.757751
v 5.391309 1.774002 -0.757751
v 5.191328 1.774002 -0.757751
v 5.391329 5.089086 -0.757751
v 5.191328 5.089086 -0.757751
v 5.390266 5.089086 -3.524575
v 5.190265 5.089086 -3.524575
v 5.390273 1.774002 -3.524574
v 5.190266 1.774002 -3.524575
v -4.575107 5.388858 -3.633747
v -4.786049 1.134119 -3.633747
v -4.786049 5.388858 -3.633747
v -4.588426 5.388858 -3.633747
v -4.575107 5.388858 -3.631371
v -4.575107 1.134265 -3.631371
v -4.575107 1.134265 -0.439190
v -4.786049 1.134119 -0.439190
v -4.586050 1.134265 -0.439191
v -4.786049 5.388858 -0.439191
v -4.586050 5.388858 -0.439190
v -4.786049 5.089086 13.206772
v -4.786049 5.089086 10.439949
v -4.786049 1.774002 13.206772
v -4.786049 1.774002 10.439949
v -4.586050 5.089086 13.206772
v -4.586050 5.089086 10.439949
v -4.586050 1.774002 13.206772
v -4.586050 1.774002 10.439949
v -4.786049 1.774002 20.714417
v -4.786049 5.089086 20.714417
v -4.786049 5.089086 17.947594
v -4.786049 1.774002 17.947594
v -4.586050 1.774002 20.714417
v -4.586050 1.774002 17.947594
v -4.586050 5.089086 20.714417
v -4.586050 5.089086 17.947594
v 0.773472 1.134265 21.397099
v 3.967163 1.134265 21.397099
v 3.967163 5.388404 21.397099
v 3.968029 1.133464 21.686619
v 3.968029 5.388404 21.686619
v 0.773472 5.388404 21.686619
v 0.773472 5.388404 21.486618
v 3.967163 5.388404 21.486618
v 0.773472 1.134265 21.486618
v 0.773472 1.133464 21.686617
v 0.773471 2.622767 21.686617
v 3.967163 1.134265 9.684447
v 4.167157 1.134265 9.684448
v 4.167163 5.388858 9.684448
v 3.967163 5.388858 9.684448
v 3.967163 1.134265 12.879006
v 4.167161 1.134265 12.879005
v 4.167163 5.388858 12.879005
v 3.967163 5.388858 12.879005
v 3.967163 1.134265 12.559559
v 3.967163 1.134265 12.879006
v 3.967163 1.134265 9.684447
vn -0.0000 -0.0000 1.0000
vn -1.0000 0.0001 0.0003
vn -0.0000 1.0000 -0.0000
vn -0.0000 -1.0000 -0.0000
vn -0.0008 -0.0000 1.0000
vn -0.0000 -0.0000 -1.0000
vn 1.0000 -0.0000 -0.0000
vn 1.0000 -0.0000 -0.0004
vn -1.0000 -0.0000 -0.0000
vn 0.0008 -0.0000 -1.0000
vn -1.0000 -0.0000 0.0004
vt 0.000000 0.000000
vt 1.000000 0.000000
vt 1.000000 1.000000
vt 0.999729 1.000000
vt 0.999729 0.000188
vt 0.000000 0.000188
vt 0.999256 0.000034
vt 0.999256 0.999953
vt 1.000000 0.999953
vt 0.000000 0.000034
vt 1.000000 0.999953
vt 1.000000 0.999953
vt 1.000000 0.250000
vt 0.000000 1.000000
vt 1.000000 0.750000
vt 1.000000 0.500000
vt 0.620953 0.000000
vt 0.620953 0.000000
vt 0.977758 0.000000
vt 1.000000 0.418826
vt 1.000000 0.418827
vt 1.000000 0.400058
vt 1.000000 0.400057
vt 1.000000 0.349099
vt 1.000000 0.349099
vt 1.000000 0.338096
vt 1.000000 0.338096
vt 1.000000 0.287138
vt 1.000000 0.287138
vt 1.000000 0.469786
vt 1.000000 0.469785
vt 1.000000 0.771794
vt 1.000000 0.771795
vt 1.000000 0.977222
vt 1.000000 0.977221
vt 0.000000 0.038099
vt 0.000000 0.332309
vt 0.000000 0.332309
vt 0.000000 0.146525
vt 0.000000 0.440735
vt 0.000000 0.867067
vt 0.000000 0.867067
vt 0.000000 0.992255
vt 0.000000 0.992256
vt 0.001119 1.000000
vt 0.001201 0.872753
vt 0.000000 0.872913
vt 0.626609 0.000000
vt 0.626563 0.003462
vt 1.000000 0.003564
vt 1.000000 0.291701
vt 1.000000 0.336986
vt 0.626609 0.000000
vt 1.000000 0.467014
vt 1.000000 0.467014
vt 1.000000 0.347849
vt 1.000000 0.347849
vt 1.000000 0.398165
vt 1.000000 0.398165
vt 1.000000 0.416698
vt 1.000000 0.416698
vt 1.000000 0.757871
vt 1.000000 0.991001
vt 1.000000 0.757870
vt 0.001351 1.000000
vt 1.000000 0.286669
vt 1.000000 0.999170
vt 1.000000 0.999170
vt 0.000000 0.999170
vt 0.000000 0.999170
vt 1.000000 0.998301
vt 1.000000 0.998301
vt 0.000000 0.998301
vt 0.000000 0.998301
vt 0.375000 0.253058
vt 0.375000 0.363174
vt 0.625000 0.382158
vt 0.625000 0.272046
vt 1.000000 0.771796
vt 0.128643 0.750000
vt 0.238744 0.750000
vt 0.238174 0.500000
vt 0.128058 0.500000
vt 0.625000 0.977369
vt 0.625000 0.867257
vt 0.498099 0.876901
vt 0.375000 0.886255
vt 0.375000 0.996357
vt 0.742257 0.750000
vt 0.852369 0.750000
vt 0.852954 0.500000
vt 0.742842 0.500000
vt 0.000000 0.030743
vt 0.000000 0.329638
vt 0.000000 0.140896
vt 0.000000 0.140896
vt 0.000000 0.872913
vt 0.000000 0.439791
vt 0.000000 0.999953
vt 0.375000 0.367864
vt 0.375000 0.477977
vt 0.375000 0.772023
vt 0.375000 0.882136
vt 0.242864 0.500000
vt 0.352977 0.500000
vt 0.738148 0.500000
vt 0.628036 0.500000
vt 0.977758 0.000000
vt 1.000000 0.003564
vt 0.000000 0.350017
vt 0.000000 0.000188
vt 1.000000 0.999918
vt 1.000000 0.999918
vt 1.000000 0.286669
vt 0.000000 0.999918
vt 0.000000 0.999918
s 0
f 157/51/27 158/52/27 159/53/27 241/54/27 240/55/27 239/56/27
f 217/57/28 216/58/28 212/59/28 161/52/28 160/51/28 218/60/28
f 215/61/27 214/62/27 213/52/27 161/52/27 212/59/27
f 160/51/29 161/52/29 213/52/29 219/51/29
f 168/63/30 163/52/30 162/51/30 164/64/30 165/53/30 167/65/30 166/66/30
f 166/66/31 167/65/31 172/65/31 175/66/31
f 165/53/32 164/64/32 169/64/32 173/53/32
f 162/51/27 249/67/27 244/68/27 243/69/27 171/52/27 170/51/27
f 163/52/33 168/63/33 174/63/33 171/52/33
f 200/70/33 202/71/33 190/72/33 188/73/33 192/74/33 194/75/33 252/76/33 251/77/33 255/78/33 256/79/33 174/63/33 168/63/33 166/66/33 175/66/33 198/80/33 196/81/33
f 204/82/34 203/83/34 172/65/34 167/65/34 165/53/34 173/53/34 208/84/34 210/85/34
f 231/86/35 162/51/35 170/51/35 232/86/35
f 170/51/35 223/87/35 225/88/35 162/51/35 231/86/35 234/89/35 233/89/35 232/86/35
f 169/64/35 164/64/35 162/51/35 225/88/35 226/90/35 224/90/35 223/87/35 170/51/35 221/91/35 219/92/35 213/93/35 214/94/35
f 178/66/29 179/65/29 177/53/29 217/95/29 218/96/29 220/97/29 176/51/29 247/98/29 239/99/29 240/100/29 180/63/29 258/101/29 250/102/29
f 178/66/36 186/66/36 183/65/36 179/65/36
f 177/53/27 184/53/27 216/95/27 217/95/27
f 176/51/32 181/51/32 182/52/32 246/52/32 245/103/32 247/98/32
f 195/104/35 197/105/35 186/66/35 178/66/35 250/102/35 253/102/35 193/106/35 191/107/35 187/108/35 189/109/35 201/110/35 199/111/35
f 205/112/37 211/113/37 177/53/37 179/65/37 183/65/37 207/114/37
f 169/64/29 214/94/29 215/64/29
f 170/51/29 171/52/29 182/52/29 181/51/29
f 172/65/29 173/53/29 184/53/29 183/65/29
f 212/115/29 216/95/29 184/53/29 173/53/29 169/64/29 215/64/29
f 174/63/29 256/79/29 257/116/29 185/63/29
f 175/66/29 172/65/29 183/65/29 186/66/29
f 171/52/29 174/63/29 185/63/29 182/52/29
f 188/52/27 190/117/27 189/118/27 187/52/27
f 189/109/29 190/72/29 202/71/29 201/110/29
f 192/51/29 188/52/29 187/52/29 191/51/29
f 191/51/32 193/119/32 194/120/32 192/51/32
f 196/52/27 198/121/27 197/122/27 195/52/27
f 197/105/29 198/80/29 175/66/29 186/66/29
f 200/51/29 196/52/29 195/52/29 199/51/29
f 199/51/32 201/123/32 202/124/32 200/51/32
f 211/125/27 210/126/27 208/127/27 209/128/27
f 206/129/34 208/84/34 173/53/34 172/65/34 203/83/34
f 209/113/37 207/114/37 183/65/37 184/53/37 177/53/37 211/113/37
f 205/130/29 204/131/29 210/132/29 211/133/29
f 207/134/32 206/135/32 203/136/32 204/137/32 205/138/32
f 206/139/30 207/140/30 209/141/30 208/142/30
f 181/51/33 176/51/33 235/143/33 237/143/33
f 235/143/33 176/51/33 229/144/33 227/144/33 181/51/33 237/143/33 238/145/33 236/146/33
f 229/144/33 176/51/33 220/97/33 222/147/33 181/51/33 227/144/33 228/148/33 230/148/33
f 219/51/32 221/149/32 222/149/32 220/60/32 218/60/32 160/51/32
f 222/147/29 221/91/29 170/51/29 181/51/29
f 224/150/27 226/150/27 230/151/27 228/151/27
f 229/152/32 225/153/32 223/153/32 227/152/32
f 226/154/29 225/154/29 229/155/29 230/155/29
f 224/156/30 228/157/30 227/157/30 223/156/30
f 233/150/27 234/150/27 236/151/27 238/151/27
f 235/152/32 231/153/32 232/153/32 237/152/32
f 234/154/29 231/154/29 235/155/29 236/155/29
f 233/156/30 238/157/30 237/157/30 232/156/30
f 171/52/27 243/69/27 242/158/27 248/68/27 249/67/27 162/51/27 163/52/27
f 240/100/35 241/159/35 246/52/35 182/52/35 185/63/35 180/63/35
f 248/51/29 242/52/29 158/52/29 157/51/29
f 242/52/35 243/53/35 159/53/35 158/52/35
f 244/64/33 249/160/33 248/51/33 157/51/33 239/56/33 247/161/33 245/64/33
f 243/53/30 244/64/30 245/64/30 246/54/30 241/54/30 159/53/30
f 253/102/29 252/76/29 194/75/29 193/106/29
f 251/52/27 252/162/27 253/163/27 250/52/27 156/52/27 260/52/27
f 257/116/35 254/164/35 250/102/35 258/101/35 180/63/35 185/63/35
f 255/51/29 251/52/29 260/52/29 156/52/29 155/51/29 259/51/29
f 155/51/32 254/51/32 257/165/32 256/166/32 255/51/32 259/51/32
o Plane.009
v 3.967163 5.388858 21.486618
v 5.190225 5.388858 -3.631371
v -4.586049 5.388858 21.486618
v -4.786102 5.388858 -3.633748
v -4.586049 5.388858 -0.439189
v -4.786102 5.388858 -0.439189
v 3.967163 5.388858 -0.665274
v 5.191408 5.388858 -0.664341
v 3.967163 5.388858 12.879005
v 4.167162 5.388858 12.879005
v 4.167163 5.388858 9.684448
v 3.967164 5.388858 8.994719
v 3.967164 5.388858 9.684448
v 3.967163 5.388858 4.623547
v 3.967163 5.388858 5.800161
v 3.967163 5.388858 1.428995
v 4.167163 5.388858 1.428995
v 4.167163 5.388858 4.623548
v 4.167163 5.388858 5.800161
v 4.167163 5.388858 8.994719
v 3.967163 5.368857 21.486618
v 5.190225 5.368857 -3.631371
v -4.586049 5.368857 21.486618
v -4.786102 5.368857 -3.633748
v -4.586049 5.368857 -0.439189
v -4.786102 5.368857 -0.439189
v 3.967163 5.368857 -0.665274
v 5.191408 5.368857 -0.664341
v 3.967163 5.368857 12.879005
v 4.167162 5.368857 12.879005
v 4.167163 5.368857 9.684448
v 3.967164 5.368857 8.994719
v 3.967164 5.368857 9.684448
v 3.967163 5.368857 4.623547
v 3.967163 5.368857 5.800161
v 3.967163 5.368857 1.428995
v 4.167163 5.368857 1.428995
v 4.167163 5.368857 4.623548
v 4.167163 5.368857 5.800161
v 4.167163 5.368857 8.994719
vn -0.0000 1.0000 -0.0000
vn -0.0000 -1.0000 -0.0000
vn -0.0000 -0.0000 1.0000
vn 1.0000 -0.0000 -0.0004
vn 0.0002 -0.0000 -1.0000
vn -1.0000 -0.0000 -0.0000
vn 1.0000 -0.0000 -0.0000
vn -0.0008 -0.0000 1.0000
vn -0.0000 -0.0000 -1.0000
vt 0.000000 0.000000
vt 0.250000 0.000000
vt 0.375000 0.000000
vt 0.437500 0.000000
vt 0.453125 0.000000
vt 0.468750 0.000000
vt 0.470703 0.000000
vt 0.472656 0.000000
vt 0.476562 0.000000
vt 0.484375 0.000000
vt 0.486328 0.000000
vt 0.488281 0.000000
vt 0.492188 0.000000
vt 0.500000 0.000000
vt 0.750000 0.000000
vt 1.000000 0.000000
vt 1.000000 1.000000
vt 0.750000 1.000000
vt 0.500000 1.000000
vt 0.000000 1.000000
s 0
f 261/167/38 269/168/38 270/169/38 271/170/38 273/171/38 272/172/38 280/173/38 279/174/38 275/175/38 274/176/38 278/177/38 277/178/38 276/179/38 267/180/38 268/181/38 262/182/38 264/183/38 266/184/38 265/185/38 263/186/38
f 281/167/39 283/186/39 285/185/39 286/184/39 284/183/39 282/182/39 288/181/39 287/180/39 296/179/39 297/178/39 298/177/39 294/176/39 295/175/39 299/174/39 300/173/39 292/172/39 293/171/39 291/170/39 290/169/39 289/168/39
f 261/167/40 263/186/40 283/186/40 281/167/40
f 262/182/41 268/181/41 288/181/41 282/182/41
f 264/183/42 262/182/42 282/182/42 284/183/42
f 263/186/43 265/185/43 285/185/43 283/186/43
f 265/185/40 266/184/40 286/184/40 285/185/40
f 266/184/43 264/183/43 284/183/43 286/184/43
f 267/180/44 276/179/44 296/179/44 287/180/44
f 268/181/45 267/180/45 287/180/45 288/181/45
f 269/168/44 261/167/44 281/167/44 289/168/44
f 270/169/40 269/168/40 289/168/40 290/169/40
f 271/170/44 270/169/44 290/169/44 291/170/44
f 272/172/44 273/171/44 293/171/44 292/172/44
f 273/171/46 271/170/46 291/170/46 293/171/46
f 274/176/44 275/175/44 295/175/44 294/176/44
f 275/175/46 279/174/46 299/174/46 295/175/46
f 276/179/46 277/178/46 297/178/46 296/179/46
f 277/178/44 278/177/44 298/177/44 297/178/44
f 278/177/40 274/176/40 294/176/40 298/177/40
f 279/174/44 280/173/44 300/173/44 299/174/44
f 280/173/40 272/172/40 292/172/40 300/173/40
