# Blender 3.6.1
# www.blender.org
mtllib hallway_guk_cvt.mtl
o door_elevator.017
v 24.962572 1.133464 -9.738001
v 24.962572 1.133464 -11.125713
v 24.962574 4.104580 -9.738001
v 24.962574 4.104580 -11.125713
v 24.562572 4.104580 -9.738001
v 24.562572 1.133464 -9.738001
v 24.562572 1.133464 -11.125713
v 24.562572 4.104580 -11.125713
v 24.962574 1.133464 -4.187149
v 24.962574 1.133464 -5.574862
v 24.962574 4.104580 -4.187149
v 24.962574 4.104580 -5.574862
v 24.562574 4.104580 -4.187149
v 24.562572 1.133464 -4.187149
v 24.562572 1.133464 -5.574862
v 24.562572 4.104580 -5.574862
v 24.962574 1.133464 1.363701
v 24.962574 1.133464 -0.024012
v 24.962574 4.104580 1.363701
v 24.962574 4.104580 -0.024012
v 24.562574 4.104580 1.363701
v 24.562572 1.133464 1.363701
v 24.562572 1.133464 -0.024012
v 24.562574 4.104580 -0.024012
vn 1.0000 -0.0000 -0.0000
vn -1.0000 -0.0000 -0.0000
vn -0.0000 -0.0000 -1.0000
vn -0.0000 -0.0000 1.0000
vn -0.0000 1.0000 -0.0000
vn -0.0000 -1.0000 -0.0000
vt 0.000000 0.000000
vt 1.000000 0.000000
vt 1.000000 1.000000
vt 0.000000 1.000000
s 0
f 1/1/1 2/2/1 4/3/1 3/4/1
f 6/1/2 5/4/2 8/3/2 7/2/2
f 2/2/3 7/2/3 8/3/3 4/3/3
f 3/4/4 5/4/4 6/1/4 1/1/4
f 4/3/5 8/3/5 5/4/5 3/4/5
f 1/1/6 6/1/6 7/2/6 2/2/6
f 9/1/1 10/2/1 12/3/1 11/4/1
f 14/1/2 13/4/2 16/3/2 15/2/2
f 10/2/3 15/2/3 16/3/3 12/3/3
f 11/4/4 13/4/4 14/1/4 9/1/4
f 12/3/5 16/3/5 13/4/5 11/4/5
f 9/1/6 14/1/6 15/2/6 10/2/6
f 17/1/1 18/2/1 20/3/1 19/4/1
f 22/1/2 21/4/2 24/3/2 23/2/2
f 18/2/3 23/2/3 24/3/3 20/3/3
f 19/4/4 21/4/4 22/1/4 17/1/4
f 20/3/5 24/3/5 21/4/5 19/4/5
f 17/1/6 22/1/6 23/2/6 18/2/6
o door_elevator.018
v 28.477123 1.133464 -9.738001
v 28.477123 1.133464 -11.125713
v 28.477125 4.104580 -9.738001
v 28.477125 4.104580 -11.125713
v 28.077124 4.104580 -9.738001
v 28.077124 1.133464 -9.738001
v 28.077124 1.133464 -11.125713
v 28.077124 4.104580 -11.125713
v 28.477125 1.133464 -4.187149
v 28.477123 1.133464 -5.574862
v 28.477125 4.104580 -4.187149
v 28.477125 4.104580 -5.574862
v 28.077126 4.104580 -4.187149
v 28.077124 1.133464 -4.187149
v 28.077124 1.133464 -5.574862
v 28.077124 4.104580 -5.574862
v 28.477125 1.133464 1.363701
v 28.477125 1.133464 -0.024012
v 28.477125 4.104580 1.363701
v 28.477125 4.104580 -0.024012
v 28.077126 4.104580 1.363701
v 28.077124 1.133464 1.363701
v 28.077124 1.133464 -0.024012
v 28.077126 4.104580 -0.024012
vn 1.0000 -0.0000 -0.0000
vn -1.0000 -0.0000 -0.0000
vn -0.0000 -0.0000 -1.0000
vn -0.0000 -0.0000 1.0000
vn -0.0000 1.0000 -0.0000
vn -0.0000 -1.0000 -0.0000
vt 0.000000 0.000000
vt 1.000000 0.000000
vt 1.000000 1.000000
vt 0.000000 1.000000
s 0
f 25/5/7 26/6/7 28/7/7 27/8/7
f 30/5/8 29/8/8 32/7/8 31/6/8
f 26/6/9 31/6/9 32/7/9 28/7/9
f 27/8/10 29/8/10 30/5/10 25/5/10
f 28/7/11 32/7/11 29/8/11 27/8/11
f 25/5/12 30/5/12 31/6/12 26/6/12
f 33/5/7 34/6/7 36/7/7 35/8/7
f 38/5/8 37/8/8 40/7/8 39/6/8
f 34/6/9 39/6/9 40/7/9 36/7/9
f 35/8/10 37/8/10 38/5/10 33/5/10
f 36/7/11 40/7/11 37/8/11 35/8/11
f 33/5/12 38/5/12 39/6/12 34/6/12
f 41/5/7 42/6/7 44/7/7 43/8/7
f 46/5/8 45/8/8 48/7/8 47/6/8
f 42/6/9 47/6/9 48/7/9 44/7/9
f 43/8/10 45/8/10 46/5/10 41/5/10
f 44/7/11 48/7/11 45/8/11 43/8/11
f 41/5/12 46/5/12 47/6/12 42/6/12
o hallway.003
v 28.117128 1.133464 2.165528
v 28.117128 1.133464 -11.542851
v 24.922575 1.133464 2.165528
v 24.922575 1.133464 -11.542851
v 28.117128 5.388858 2.165528
v 28.117128 5.388858 -11.542851
v 24.922575 5.388858 2.165528
v 24.922575 5.388858 -11.542851
v 28.317129 0.933464 2.165528
v 28.317127 0.933464 -11.542851
v 24.722576 0.933464 2.165528
v 24.722574 0.933464 -11.542851
v 28.317129 5.388858 2.165528
v 28.317127 5.388858 -11.542851
v 24.722576 5.388858 2.165528
v 24.722574 5.388858 -11.542851
vn -0.0000 1.0000 -0.0000
vn 1.0000 -0.0000 -0.0000
vn -1.0000 -0.0000 -0.0000
vn -0.0000 -1.0000 -0.0000
vn -0.0000 -0.0000 1.0000
vn -0.0000 -0.0000 -1.0000
vt 0.000000 0.000000
vt 1.000000 0.000000
vt 1.000000 1.000000
vt 0.000000 1.000000
s 0
f 49/9/13 50/10/13 52/11/13 51/12/13
f 51/12/14 52/11/14 56/11/14 55/12/14
f 50/10/15 49/9/15 53/9/15 54/10/15
f 57/9/16 59/12/16 60/11/16 58/10/16
f 59/12/15 63/12/15 64/11/15 60/11/15
f 58/10/14 62/10/14 61/9/14 57/9/14
f 49/9/17 51/12/17 59/12/17 57/9/17
f 52/11/18 50/10/18 58/10/18 60/11/18
f 54/10/13 53/9/13 61/9/13 62/10/13
f 55/12/13 56/11/13 64/11/13 63/12/13
f 51/12/17 55/12/17 63/12/17 59/12/17
f 56/11/18 52/11/18 60/11/18 64/11/18
f 50/10/18 54/10/18 62/10/18 58/10/18
f 53/9/17 49/9/17 57/9/17 61/9/17
o Plane.002
v 28.117126 1.133462 -11.461343
v 24.922573 1.133462 -11.461342
v 28.117126 5.368858 -11.461343
v 24.922573 5.368858 -11.461342
v 28.117126 1.133462 -11.542852
v 24.922573 1.133462 -11.542851
v 28.117126 5.368858 -11.542852
v 24.922573 5.368858 -11.542851
vn -0.0000 -0.0000 1.0000
vn -0.0000 -0.0000 -1.0000
vn 1.0000 -0.0000 -0.0000
vn -0.0000 -1.0000 -0.0000
vn -1.0000 -0.0000 -0.0000
vn -0.0000 1.0000 -0.0000
vt 0.000000 0.000000
vt 0.000000 1.000000
vt 1.000000 1.000000
vt 1.000000 0.000000
s 0
f 65/13/19 67/14/19 68/15/19 66/16/19
f 69/13/20 70/16/20 72/15/20 71/14/20
f 67/14/21 65/13/21 69/13/21 71/14/21
f 65/13/22 66/16/22 70/16/22 69/13/22
f 66/16/23 68/15/23 72/15/23 70/16/23
f 68/15/24 67/14/24 71/14/24 72/15/24
o roof_hallway.003
v 28.117130 5.388858 2.165521
v 28.117119 5.388858 -11.542858
v 24.922577 5.388858 2.165524
v 24.922565 5.388858 -11.542855
v 28.117130 5.368857 2.165521
v 28.117119 5.368857 -11.542858
v 24.922577 5.368857 2.165524
v 24.922565 5.368857 -11.542855
vn -0.0000 1.0000 -0.0000
vn -0.0000 -1.0000 -0.0000
vn -0.0000 -0.0000 1.0000
vn 1.0000 -0.0000 -0.0000
vn -0.0000 -0.0000 -1.0000
vn -1.0000 -0.0000 -0.0000
vt 0.000000 0.000000
vt 1.000000 0.000000
vt 1.000000 1.000000
vt 0.000000 1.000000
s 0
f 73/17/25 74/18/25 76/19/25 75/20/25
f 77/17/26 79/20/26 80/19/26 78/18/26
f 73/17/27 75/20/27 79/20/27 77/17/27
f 74/18/28 73/17/28 77/17/28 78/18/28
f 76/19/29 74/18/29 78/18/29 80/19/29
f 75/20/30 76/19/30 80/19/30 79/20/30
